<svg xmlns="http://www.w3.org/2000/svg" xmlns:xlink="http://www.w3.org/1999/xlink" version="1.1" preserveAspectRatio="none" x="0px" y="0px" viewBox="74.5 151.29 749.37 605.86">
<defs>
<g id="Layer5_0_FILL">
<path fill="#312E3A" stroke="none" d=" M 428.6 242.2 L 446.15 202.45 348.45 202.45 351.25 242.2 428.6 242.2 M 456 202.45 L 473.25 242.2 549.8 242.2 552.5 202.45 456 202.45 Z"/>

<path fill="#3F342E" stroke="none" d=" M 446.15 202.45 L 456 202.45 552.5 202.45 575.2 202.45 575.2 155 325.55 155 325.55 202.45 348.45 202.45 446.15 202.45 M 692.25 329.05 L 651.7 304.1 638.45 288.75 575.2 264.35 575.2 202.45 552.5 202.45 549.8 242.2 473.25 242.2 456 202.45 446.15 202.45 428.6 242.2 351.25 242.2 348.45 202.45 325.55 202.45 325.55 264.35 261.6 288.75 248.2 304.1 207.2 329.05 175.5 363.35 166.8 388.25 166.8 426.65 166.8 388.25 136.45 423.95 92.7 502.75 74.5 530.3 74.5 567.35 90 593.6 100.75 629.3 168.05 689.85 189.65 725.55 250.25 757.15 279.9 757.15 302.7 741.65 315.5 721.55 322.95 689.85 322.95 671.65 303.45 658.15 262.35 648.75 232.7 660.85 203.05 642.65 186.95 592.25 186.95 564.6 172.1 539.7 220.6 512.75 264.85 461.2 269.05 456.25 264.85 461.2 291.95 483.2 304.75 491.25 313.45 530.4 291.95 613.85 324.9 636.75 393.6 659.6 451.05 667.35 507.9 659.6 575.85 636.75 608.35 613.85 587.15 530.4 595.7 491.25 608.35 483.2 635.2 461.2 631.1 456.25 635.2 461.2 679 512.75 726.95 539.7 712.2 564.6 712.2 592.25 696.25 642.65 667 660.85 637.7 648.75 597.05 658.15 577.75 671.65 577.75 689.85 585.05 721.55 597.8 741.65 620.35 757.15 649.6 757.15 709.6 725.55 730.9 689.85 797.5 629.3 808.1 593.6 823.45 567.35 823.45 530.3 805.5 502.75 762.15 423.95 732.15 388.25 732.15 426.65 732.15 388.25 723.55 363.35 692.25 329.05 M 651.7 336.5 L 661.7 377.55 653 407.85 661.7 377.55 651.7 336.5 623.1 318.95 651.7 336.5 M 699.55 458.95 L 677 458.95 647.75 438.8 677 458.95 699.55 458.95 M 771.45 498.05 L 771.45 533.1 771.45 498.05 747.55 459.05 771.45 498.05 M 774.85 610.45 L 721.5 667.65 774.85 610.45 786.75 565.95 774.85 610.45 M 440.6 217.35 L 461.6 217.35 440.6 217.35 M 351.25 322.95 L 401.65 322.95 351.25 322.95 301.35 348.55 351.25 322.95 M 473.25 330.4 L 464.55 345.9 473.25 330.4 M 428.6 330.4 L 437.35 345.9 428.6 330.4 M 353.2 273.2 L 327.6 304.15 353.2 273.2 M 549.8 322.95 L 499.95 322.95 549.8 322.95 599.15 348.55 549.8 322.95 M 623.1 362.7 L 632.35 386.25 623.1 362.7 M 547.85 273.2 L 573.15 304.15 547.85 273.2 M 277.1 318.95 L 248.2 336.5 238.1 377.55 246.85 407.85 238.1 377.55 248.2 336.5 277.1 318.95 M 277.1 362.7 L 267.7 386.25 277.1 362.7 M 292.6 448.95 L 313.45 482.5 292.6 448.95 M 300.75 423.3 L 322.95 454.3 370.05 468.45 389.55 468.45 370.05 468.45 322.95 454.3 300.75 423.3 M 199.75 458.95 L 222.6 458.95 252.2 438.8 222.6 458.95 199.75 458.95 M 127.05 498.05 L 127.05 533.1 127.05 498.05 151.25 459.05 127.05 498.05 M 123.65 610.45 L 177.55 667.65 123.65 610.45 111.6 565.95 123.65 610.45 M 599.75 423.3 L 577.75 454.3 531.2 468.45 511.95 468.45 531.2 468.45 577.75 454.3 599.75 423.3 M 607.8 448.95 L 587.15 482.5 607.8 448.95 M 557.85 508.1 L 566.45 579.45 557.85 508.1 M 533.15 571.4 L 503.25 581.5 533.15 571.4 533.15 541.75 533.15 571.4 M 531.8 522.95 L 498.5 531 531.8 522.95 531.8 494.65 531.8 522.95 M 436 445.5 L 416.5 467.1 436 445.5 436 376.15 436 445.5 M 465.9 445.5 L 485.25 467.1 465.9 445.5 465.9 376.15 465.9 445.5 M 369.4 522.95 L 403.05 531 369.4 522.95 369.4 494.65 369.4 522.95 M 368.05 571.4 L 398.3 581.5 368.05 571.4 368.05 541.75 368.05 571.4 M 343.1 508.1 L 334.4 579.45 343.1 508.1 M 482.55 541.15 L 467.25 541.15 482.55 541.15 M 451.95 522.25 L 451.95 506.15 451.95 522.25 461.95 531 451.95 522.25 M 450.15 522.25 L 450.15 506.15 450.15 522.25 440.05 531 450.15 522.25 M 419.2 541.15 L 434.65 541.15 419.2 541.15 M 430.75 543.8 L 413.35 543.8 430.75 543.8 M 449.25 546.5 L 449.25 560.65 449.25 546.5 M 452.85 546.5 L 452.85 560.65 452.85 546.5 M 449.25 574.1 L 449.25 593.6 449.25 574.1 438.7 574.1 449.25 574.1 452.85 574.1 463.3 574.1 452.85 574.1 452.85 593.6 452.85 574.1 449.25 574.1 M 446.15 489.3 L 399.65 489.3 446.15 489.3 M 409.05 597.6 L 432 597.6 409.05 597.6 M 367.35 613.85 L 391.6 627.95 411.15 627.95 391.6 627.95 367.35 613.85 367.35 594.95 367.35 613.85 M 533.85 594.95 L 533.85 613.85 509.85 627.95 490.55 627.95 509.85 627.95 533.85 613.85 533.85 594.95 M 492.6 597.6 L 469.95 597.6 492.6 597.6 M 456 489.3 L 501.9 489.3 456 489.3 M 471.65 543.8 L 489.2 543.8 471.65 543.8 Z"/>
</g>

<g id="Layer5_0_STROKES_1_FILL">
<path fill="#FFCC00" stroke="none" d=" M 343.55 509.9 L 343.15 508.1 343.05 508 343 508.05 342.05 510.05 342 510.2 341.9 510.35 337.65 522.75 337.3 524.15 Q 336.75 526.3 335.9 530.1 L 333.75 543.15 Q 333.25 547.75 333.1 549.8 L 332.7 556.3 Q 332.6 560.5 332.65 562.4 L 333.35 574.1 333.8 576.95 333.8 577.1 333.85 577.25 334.3 579.4 334.4 579.5 334.45 579.45 335.4 577.45 335.45 577.3 335.55 577.15 336.65 574.5 340.15 563.35 Q 340.7 561.2 341.55 557.4 L 343.7 544.35 Q 344.2 539.75 344.35 537.7 L 344.75 531.2 Q 344.85 527.05 344.8 525.1 L 344.1 513.4 343.65 510.55 343.65 510.4 343.6 510.25 343.55 509.9 M 604.65 450.65 L 599.75 454.7 Q 597.8 456.8 597.45 457.2 L 594.7 460.75 590.2 468.7 590.15 468.9 589.9 469.55 Q 589.55 470.3 588.7 472.7 L 587.55 477.05 587.2 479.2 587.05 482.4 Q 587.05 482.55 587.15 482.55 L 587.2 482.55 588.4 481.9 588.45 481.85 588.95 481.6 595.15 476.7 Q 597.1 474.6 597.45 474.2 L 597.75 473.85 597.85 473.7 600.2 470.65 604.7 462.7 604.75 462.5 605 461.85 Q 605.35 461.1 606.2 458.7 L 606.45 457.9 607.7 452.2 607.7 451.9 607.85 449 Q 607.85 448.85 607.75 448.85 L 607.7 448.85 606.5 449.5 606.45 449.55 605.95 449.8 604.65 450.65 M 121.3 588.65 L 112.35 567.2 112.15 566.9 111.65 565.9 111.55 565.85 111.5 565.95 111.5 566.7 115.65 595.8 115.75 596.15 116.6 600.4 Q 116.75 601.35 117.2 603.2 L 119.05 611.65 Q 119.25 612.6 119.95 613.4 L 143.8 638.65 157.25 651.3 175.4 666.25 177.45 667.7 Q 177.5 667.75 177.6 667.65 L 177.6 667.55 175.6 664.4 175.4 664.15 174.9 663.35 153.8 636 127.95 608.05 127.75 607.9 121.55 589.35 121.4 589 121.3 588.65 M 310.45 469.1 L 307.25 463.05 303.4 457.7 302.95 457.2 Q 302.2 456.3 300.6 454.7 L 295.45 450.45 295.25 450.35 294.4 449.8 294 449.6 293.95 449.55 292.65 448.85 292.5 448.9 292.5 450.5 293.95 457.95 295.55 462.3 298.75 468.35 302.6 473.7 303.05 474.2 Q 303.8 475.1 305.4 476.7 L 306.55 477.8 310.55 480.95 310.75 481.05 311.6 481.6 312 481.8 312.05 481.85 313.35 482.55 313.5 482.5 313.35 479.45 312.65 475.7 310.45 469.1 M 270.5 367.8 L 270.3 368 270 368.5 269.8 368.7 269.7 368.85 269.65 368.95 268.45 371 268.35 371.25 268.2 371.5 267.15 374.3 266.6 376.55 266.6 376.7 266.55 376.85 266.55 377.15 266.4 377.95 266.35 380.45 266.7 383.3 267.1 384.8 267.15 385.1 267.2 385.2 267.2 385.25 267.25 385.4 267.6 386.2 Q 267.6 386.4 267.75 386.25 L 268.75 385.8 268.8 385.75 269.7 385.25 271.5 383.95 274.1 381.3 274.25 381.1 274.45 380.9 274.75 380.4 274.95 380.2 275.05 380.05 275.1 379.95 276.3 377.9 276.4 377.65 276.55 377.4 277.6 374.6 278.15 372.35 278.15 372.2 278.2 372.05 278.2 371.75 278.35 370.95 278.4 368.45 278.2 366.45 277.6 363.8 277.55 363.7 277.55 363.65 277.5 363.5 277.15 362.7 Q 277.15 362.5 277 362.65 L 276 363.1 275.95 363.15 275.05 363.65 273.25 364.95 270.65 367.6 270.5 367.8 M 233.8 377 Q 233.65 377.95 233.95 378.7 L 241.4 397.1 246.75 407.85 246.85 407.9 246.9 407.8 246.7 404.25 242.5 377.7 252.2 339.05 256.55 336 256.95 335.65 260.35 333.15 260.6 333 260.8 332.8 263.3 330.85 263.75 330.55 271.15 324.45 271.25 324.4 277.15 319 277.15 318.85 277 318.85 273.7 320 273.45 320.05 269.55 321.55 260.6 325.4 260.15 325.65 257.25 326.95 257 327.1 245.9 332.7 Q 244.55 333.4 244.05 334.9 L 234.9 371.3 233.8 377 M 631.65 371 L 630.45 369 630.4 368.85 630.3 368.75 630.15 368.5 629.8 368.05 629.65 367.8 627.25 365.3 625.1 363.65 624.2 363.15 624.15 363.1 623.15 362.65 Q 623 362.5 623 362.7 L 622.65 363.5 622.6 363.65 622.6 363.7 622.55 363.8 622.15 365.15 622.1 365.55 621.9 366.45 621.7 368.45 621.75 370.9 621.9 372.05 621.9 372.2 621.95 372.3 622.15 373.45 622.5 374.6 622.55 374.9 624.3 378.95 624.95 379.9 625 380.05 625.1 380.15 625.25 380.4 625.6 380.85 625.75 381.1 628.15 383.6 630.3 385.25 631.2 385.75 631.25 385.8 632.25 386.25 Q 632.4 386.4 632.4 386.2 L 632.75 385.4 632.8 385.25 632.8 385.2 632.85 385.1 632.95 384.8 633.5 382.45 633.7 380.45 633.65 378 633.5 376.85 633.5 376.7 633.45 376.6 633.25 375.45 632.9 374.3 632.85 374 631.65 371 M 568.2 290.95 L 568.1 290.75 563.15 284.05 559.95 280.75 559.75 280.6 559.25 280.15 Q 558.4 279.35 556.6 277.95 L 554.05 276.15 553.4 275.8 552.85 275.4 549.15 273.55 547.9 273.1 Q 547.8 273.1 547.75 273.2 L 547.75 273.25 547.9 274.35 547.95 274.55 547.95 274.65 548 274.75 548.3 276.15 548.4 276.45 548.45 276.7 549.25 279.2 552.4 285.8 552.6 286.15 552.75 286.35 552.85 286.55 557.8 293.25 561 296.55 561.2 296.7 561.7 297.15 Q 562.55 297.95 564.35 299.35 L 566.9 301.15 567.55 301.5 568.1 301.9 571.8 303.75 573.05 304.2 Q 573.15 304.2 573.2 304.1 L 573.2 304.05 573.05 302.95 573 302.75 573 302.65 572.95 302.55 572.65 301.15 572.55 300.85 572.5 300.6 571.7 298.1 568.55 291.5 568.35 291.15 568.2 290.95 M 336.5 285.45 L 332.6 290.9 332.5 291.1 332.25 291.5 Q 331.5 292.75 330.6 294.55 L 329.9 296 328.15 300.85 328.1 301.15 327.75 302.55 327.75 302.65 327.7 302.75 327.7 302.9 327.5 304.05 327.6 304.2 327.65 304.2 328.9 303.75 329.1 303.65 329.5 303.5 330.4 303.05 330.7 302.95 335.75 299.85 339.6 296.7 344.25 291.85 348.15 286.4 348.25 286.2 348.5 285.8 Q 349.25 284.55 350.15 282.75 L 352.6 276.45 352.65 276.15 353 274.75 353 274.65 353.05 274.55 353.05 274.4 353.25 273.25 353.15 273.1 353.1 273.1 351.85 273.55 351.65 273.65 351.25 273.8 350.35 274.25 350.05 274.35 345 277.45 341.3 280.45 336.5 285.45 M 655.8 334.9 Q 655.35 333.45 654 332.7 L 647 329.05 630.65 321.6 623.15 318.85 Q 623 318.8 623 318.9 L 623 319 636.25 330.55 647.65 339.05 654.5 368.4 657.25 377.75 653.5 400.05 653.5 400.3 652.9 407.8 652.95 407.9 653.05 407.85 656.55 401.15 665.8 378.7 Q 666.1 377.9 665.95 377.05 L 663.3 363.55 655.8 334.9 M 557.75 508.1 L 557.35 509.9 557.3 510.25 557.25 510.4 557.25 510.55 556.8 513.4 556.05 525.1 Q 556.05 529.05 556.15 531.2 L 556.5 537.7 Q 556.65 539.75 557.15 544.35 L 559.3 557.4 Q 559.8 559.85 560.7 563.35 L 562.55 569.85 565.25 577.15 565.35 577.3 565.4 577.45 566.35 579.45 566.45 579.5 566.5 579.4 566.95 577.25 567 577.1 567 576.95 567.45 574.1 568.2 562.4 Q 568.2 558.45 568.1 556.3 L 567.75 549.8 Q 567.6 547.75 567.1 543.15 L 564.95 530.1 Q 564.5 527.65 563.55 524.15 L 562.1 518.85 559 510.35 558.9 510.2 558.85 510.05 557.9 508.05 557.8 508 557.75 508.1 M 786.55 569.6 L 786.75 567.4 786.75 567.05 786.8 566.7 786.8 565.95 786.75 565.85 786.65 565.9 779.65 581.9 773.75 598.2 770.7 607.85 767.95 610.7 Q 767.35 611.25 766.25 612.45 L 754.55 624.95 728.3 657.25 723.75 663.9 Q 723.65 663.95 723.55 664.15 L 721.4 667.55 Q 721.35 667.6 721.45 667.7 L 721.55 667.7 740.9 651.9 741.1 651.65 760.05 633.4 778.5 613.4 Q 779.15 612.7 779.4 611.65 L 782.65 596.15 782.75 595.8 786.55 569.95 786.55 569.6 Z"/>
</g>

<g id="Layer4_0_FILL">
<path fill="#2A1C0D" stroke="none" d=" M 163.55 464.45 Q 164.05 462.15 163.3 460.15 162.55 458.1 160.55 456.9 158.45 455.7 156.4 456.2 154.45 456.7 152.55 458.8 150.85 460.65 149.1 464.1 146.5 469.2 146.15 469.8 144.25 472.95 140.2 477.35 135.05 483 133.8 484.55 130.4 488.95 129.15 493.35 128.25 496.5 128.15 503.05 128.05 512.15 128.15 516.7 128.3 524.3 129 530.3 129.4 533.8 130.6 535.35 131.65 536.6 133.3 537.05 134.95 537.5 136.55 537.05 138.1 536.6 139.35 535.4 140.55 534.2 141.1 532.65 141.5 531.6 141.75 530.15 141.75 530.1 142.05 527.55 142.35 525.1 143.45 520.3 L 150.15 491.35 Q 151.15 487.1 151.9 485.1 153.15 481.7 155.1 479.55 157.1 477.65 158.05 476.6 159.65 474.85 159.8 473.15 159.7 471.3 160 470.4 160.15 469.85 160.65 469.25 161.25 468.6 161.55 468.25 163.05 466.6 163.55 464.45 M 242.5 353.2 Q 240.5 360.15 241.35 371.55 242.05 380.2 243.5 388.05 244.4 393.1 244.45 393.4 244.95 396.45 244.95 398.75 245 400.05 244.85 402.65 244.8 405 245.15 406.55 245.6 408.55 246.9 410.05 248.3 411.65 250.15 411.85 251.65 412.05 253.15 411.2 254.5 410.4 255.4 409 256.7 406.85 257 402.95 257.3 398.55 256.5 392.65 255.3 385.8 254.75 382.35 253.6 374.95 253.15 368.05 252.75 361.95 253.65 358.45 254.3 355.85 255.6 353.65 257.4 350.55 261.05 347.35 265.4 343.75 267.55 341.95 272.35 337.95 276.65 333.05 278.9 330.3 279.25 328.65 279.65 326.9 278.9 325.15 278.15 323.4 276.6 322.4 275.1 321.45 273.2 321.45 271.3 321.5 269.75 322.45 268.5 323.25 267.2 324.9 266.5 325.8 265.05 327.75 263 330.3 258.75 333.35 253.1 337.4 251.95 338.4 244.95 344.45 242.5 353.2 M 333.85 292.95 Q 331.7 293.95 330.95 296.3 330.45 298.2 331.25 300.1 332 302 333.65 303.15 335.2 304.2 337.3 304.45 339.2 304.7 341.2 304.25 344.55 303.4 348.05 300.55 353.85 295.95 357.2 289.35 358.8 286.45 358.6 284.3 358.4 282.1 356.55 280.55 354.65 279 352.45 279.2 348.85 279.55 345.4 284.95 343.7 287.75 342.7 288.9 341 290.95 339 291.65 338.25 291.95 336.4 292.25 334.7 292.55 333.85 292.95 M 446.75 206.5 Q 446.25859375 206.857421875 445.75 207.4 443.41640625 207.444140625 441.65 209.35 439.7 211.45 440 213.95 440.1025390625 214.8521484375 440.45 215.7 L 437.45 221 Q 435.7 224.1 435 225.55 433.75 228.2 433.2 230.4 432.35 234.05 433.5 236.35 434.55 238.6 437.2 239.3 439.8 240 441.75 238.55 442.95 237.7 443.85 236 444.2 235.4 445.2 232.85 446.55 229.7 448.9 225.8 449.0625 225.54453125 450 224.05 454.6478515625 227.051953125 461.75 231.3 464.55 233 466.25 233.15 467.75 233.25 469.15 232.5 470.5 231.8 471.35 230.5 472.15 229.25 472.25 227.65 472.35 226.1 471.8 224.7 470.9 222.45 468.4 220.65 467.15 219.8 463.55 217.9 459.6521484375 215.8408203125 455.95 213.15 456.4865234375 210.9126953125 455.7 209.05 454.7 206.6 451.85 205.8 449 205 446.75 206.5 M 698.3 338.3 Q 696.4 338.45 695.4 339.75 690.4 332.25 678.3 323.5 663.35 312.7 659.35 308.7 655.05 304 652.85 301.65 648.95 297.45 645.8 295.3 641.75 292.6 635.55 290.75 634.5 290.4 624.55 287.95 604.1 283.1 585.15 273.05 583.4830078125 272.1673828125 582.3 271.65 580.1548828125 269.275 579.05 268 575.75 264.1 574.15 258.25 572.85 253.6 572.5 247.1 572.3 239.65 572 235.95 571.55 229.5 570.1 225 569.45 223 569.85 222.05 570.1 221.45 570.8 220.9 571.2 220.55 572 219.9 573.25 218.8 573.75 216.8 574.05 215.4 574.1 213.05 574.4 201.9 573.65 188.4 573.05 178.75 571.65 163.75 571.4 161.05 571.15 159.75 570.75 157.55 569.95 155.95 569.05 154.05 567.5 152.8 565.8 151.4 563.9 151.3 561.7 151.15 559.65 152.6 557.8 153.9 556.55 156.05 554.7 159.25 554.1 163.9 553.75 166.85 553.85 172.35 554.6 202.05 558 224.55 559.25 232.95 559.45 234.6 559.7 236.55 560.5 247 561.05 254.6 562 259.35 564.95 274 573.85 280.6 575.27109375 281.64609375 576.55 282.2 578.0044921875 283.2673828125 580.1 284.35 601.2 295.15 624.25 300.7 629.1 301.85 630.75 302.35 634.35 303.45 636.9 304.85 640.5 306.85 644.6 311.1 646.95 313.5 651.5 318.45 653.33515625 320.2634765625 655.9 322.35 654.1658203125 321.6658203125 651.35 320.95 647.5 320 646.55 319.7 645.5 319.4 642.45 318.3 639.85 317.35 638.25 317 633.05 315.9 629.85 318.1 628 319.35 627.3 321.55 626.6 323.9 627.75 325.7 628.55 327 630.35 327.85 631.55 328.4 633.7 328.95 L 644.95 331.85 Q 647.2 332.45 648.15 332.85 649.9 333.55 651 334.55 652.45 335.95 653.8 339.15 657.1 347 659.85 355.4 662.45 363.5 662.8 368.8 663.1 373.65 661.85 378.6 660.85 382.65 658.9 385.25 657.9 386.65 655.7 388.8 653.3 391.2 652.4 392.3 650.8 394.35 650.25 396.6 649.65 399.2 650.7 401.15 651.45 402.5 652.85 403.25 654.2 404.05 655.7 404 658.05 403.85 660.3 401.75 660.85 401.3 664 397.65 665.15 396.35 667.65 393.9 669.8 391.6 670.9 389.8 672.5 387.15 673.4 382.8 675.6 372.7 673.95 361.65 672.45 351.3 667.85 341.2 666.7 338.75 666.15 337.55 665.2 335.4 664.65 333.85 664 331.8 663.65 330.75 663.05 328.95 662.35 327.75 662.1609375 327.4240234375 661.95 327.1 662.87265625 327.794140625 663.85 328.5 673.55 335.45 676.65 338.1 706.25 363.2 713.55 418.45 714 421.8 714.4 423.3 715.1 425.95 716.4 427.7 718 429.7 720.5 430.3 723.2 430.9 724.95 429.35 726 428.4 726.55 426.7 726.9 425.65 727.2 423.55 728.200390625 415.74765625 728.7 409.75 731.6462890625 413.4544921875 737.2 418.65 744.25 425.25 746.7 428.1 749.6 431.5 752.7 436.25 754.35 438.8 757.9 444.9 776.75 477.2 785.5 494 799.95 521.7 808.3 545.3 809.15 547.7 809.45 548.95 809.623828125 549.7416015625 809.7 550.45 L 797.1 559.1 Q 792.5 562.25 790.3 563.95 786.65 566.75 784.1 569.5 777.6 576.65 777.1 584.3 777 585.8 777.6 592.9 778.05 598.1 776.85 601.2 776.2 602.9 774.8 604.75 774.05 605.75 772.15 607.9 761.1 620.6 750.85 639.35 748.15 644.35 746.25 646.45 744.8 648.05 742.4 649.8 739.6 651.75 738.2 652.7 729.2017578125 659.013671875 723 668.35 721.7890625 667.9857421875 720.35 668.25 717.85 668.75 716.65 670.65 715.95 671.8 715.65 673.5 715.5 674.25 715.35 676.6 715 681.85 713.5 688.2 712.6 692 710.4 699.55 709.55 702.45 708.95 703.9 708 706.25 706.7 707.8 705.2 709.6 701.35 712 697.4 714.45 695.95 716.1 695.15 717 693.85 719.05 692.55 721.05 691.75 721.95 690.4 723.5 688.05 724.8 687.15 725.3 683.8 726.9 680.1 728.6 672.9 732.3 L 661.3 738.25 659.8 738.65 Q 658.15 739.2 653.85 741 650.15 742.6 647.9 743.2 644.45 744.15 640 744.25 637.25 744.3 631.9 744 628.2 743.8 626.1 743.55 622.95 743.2 620.4 742.45 616.95 741.5 613.1 739.25 610.5 737.75 608.65 736.1 606.95 734.6 603.85 730.45 600.55 726 599.1 723.8 596.6 719.95 595.25 716.55 593.75 712.65 593 711.4 591.4 708.7 589.05 708.2 586.75 707.7 584.65 709.5 582.65 711.25 582.25 713.8 581.7 717.55 584.55 723.2 587.35 728.65 594.35 738.85 596.95 742.7 598.85 744.55 600.75 746.45 604.7 748.8 610.9 752.6 615.6 754.1 619.8 755.5 625.1 756.1 629 756.5 634.85 756.6 643.2509765625 756.693359375 648.3 755.8 649.8951171875 756.5443359375 651.75 756.45 654.15 756.35 657.05 755 658.2 754.4 661.95 752.2 662.73671875 751.7310546875 664 751 L 667.8 749.75 Q 673.7 747.7 676.75 746.3 680.3 744.6 685 741.3 686.7 740.1 687.5 739.35 687.683984375 739.1734375 687.85 739 L 688.75 738.55 Q 692.7 736.6 694.65 735.45 697.85 733.5 699.95 731.45 701.25 730.2 703.4 727.5 705.65 724.7 706.8 723.55 708.15 722.25 712.7 718.8 716.5 715.95 718.2 713.7 720 711.3 721.2 707.75 721.95 705.6 722.95 701.2 L 723.9 696.95 Q 724.7822265625 695.7966796875 725.9 693.9 730 687.1 737.15 680.25 741.6 675.95 750.7 668.7 L 771.8 651.75 Q 778.5 646.35 782.5 644.15 783.65 643.55 786 642.35 787.95 641.25 789.1 640.05 790.65 638.45 791.65 635.8 792.25 634.25 793 630.9 L 798.2 607.55 Q 799.772265625 600.6056640625 801 596.7 802.1341796875 596.3498046875 803.15 595.6 804.95 594.3 806.4 591.95 807.35 590.4 808.65 587.5 L 817.85 566.95 Q 819.35 563.65 820 561.95 820.782421875 559.86328125 821.2 558 821.70703125 557.53359375 822.1 557.05 823.65 555.15 823.85 552.75 824.05 550.15 822.5 548.5 822.0853515625 548.04765625 821.55 547.7 821.36484375 546.361328125 821.05 544.95 820.05 540.45 817.3 533.45 808.95 512.25 795.75 487 787.85 471.9 770.95 442.1 767.35 435.8 765.6 432.95 762.45 427.9 759.5 424.25 756.5 420.5 748.25 412.35 740.8 404.95 737.35 400.15 735.25 397.35 734.1 396.25 732 394.35 729.85 394.45 729.4359375 394.459375 729.05 394.55 728.4228515625 384.4470703125 725.3 376.6 723.05 371 717.15 361.7 L 706.15 344.15 Q 703.75 340.25 701.65 339.05 700.1 338.15 698.3 338.3 M 791.35 579.7 Q 791.8 579.45 792.1 579.75 792.35 582.65 790.85 585.05 790.2 586 789.55 585.95 790 585.1 790.2 583.1 790.35 581.15 790.8 580.3 791.1 579.8 791.35 579.7 M 782.35 614.55 Q 783.4 613.2 783.95 612.8 784 613 783.75 613.95 783 616.15 782.45 617.1 781.8 618.15 780.35 619.6 777.2 622.95 774.45 625.4 773.65 626.1 773.1 626 778.15 620.7 782.35 614.55 M 253.65 675.4 Q 261.3 675.2 267.4 674.55 271.5 674.1 274.05 673.2 277.6 671.95 279.45 669.55 L 290.2 673.9 Q 293.75 675.3 295.65 676.4 298.45 678.1 299.95 680.3 302 683.35 302 688.15 302.05 691.1 301.35 694.7 300.9 696.9 299.75 701.1 296.6 713.25 295.35 719.75 293.85 727.5 293.1 729.85 291.4 735.45 288.25 738.6 287.5 739.35 285.45 741 283.6 742.5 282.7 743.5 281.3 744.95 280.75 746.65 280.1 748.6 280.65 750.25 281.2 751.8 282.75 752.8 284.25 753.75 286.05 753.85 289.1 754 292.5 751.75 296.6 749.05 299.95 744 302.3 740.5 305.15 734.25 309.2 725.5 311.35 719.25 314.15 710.85 314.85 703.45 315.15 700.25 315.1 695.05 315.1 688.45 315.15 686.6 315.3 682.7 315.2 681.25 315 678.25 313.9 676.2 312.85 674.15 309.6 671.4 304.75 667.15 301.75 665.4 299.6 664.1 296.15 662.75 292.3 661.3 290.4 660.5 289.3 660.05 285.35 658.2 282.3 656.7 280.3 656 274.25 653.85 267.55 654.05 261 654.25 254.9 656.65 248.3 659.75 245 661.15 239.1 663.6 234.7 663.2 233.45 663.1 230.75 662.5 228.2 661.9 226.8 661.8 224.6 661.65 222.85 662.35 220.8 663.1 219.9 664.8 219.05 666.4 219.55 668.35 220 670.25 221.35 671.6 223.45 673.7 228 674.65 230.6 675.2 233.9 675.35 235.9 675.45 239.9 675.45 249.05 675.5 253.65 675.4 M 278.3 412.55 Q 278.2 410.7 278 409.7 277.65 408.1 276.8 407.15 275.3 405.4 272.6 405.75 270.05 406.1 268.35 407.95 266.9 409.5 266 412.05 265.55 413.2 264.65 416.7 259.5 437.15 247.05 452.85 245.8 454.35 242.45 458.3 239.5 461.7 237.9 463.75 234.9 467.55 225.65 482.1 218.35 493.6 212.25 499.4 209.15 502.35 204.7 505.5 202.2 507.3 196.6 510.95 L 173.05 526.25 Q 165.3 531.2 166.95 535.95 167.65 537.9 169.75 538.9 171.75 539.8 173.95 539.5 175.8 539.25 177.9 538.2 179.1 537.55 181.55 535.95 L 206.75 519.05 Q 211.7 515.7 213.9 514.1 217.8 511.2 220.6 508.6 225.95 503.6 231.7 495.25 238 485.4 241.25 480.55 245.85 473.7 252.3 465.5 255.9 460.9 264.1 451 263.55 452.35 262.2 454.55 260.7 456.95 260.2 458.05 259.3 460.05 259.25 462 259.25 464.2 260.4 465.7 261.8 467.45 264.4 467.6 266.85 467.75 268.9 466.4 270.8708984375 465.0751953125 272.45 462.3 L 277.35 462.65 Q 277.7544921875 462.68515625 278.1 462.7 280.2953125 465.3310546875 281.9 466.6 285.4712890625 469.447265625 291.05 470.5 292.5302734375 471.6921875 293.95 472.6 295.55 473.55 295.85 473.75 296.85 474.45 297.45 475.25 298.05 476.1 298.65 477.85 299.3525390625 480.3275390625 299.5 482.65 299.4705078125 484.2677734375 299.6 485.85 299.6 487.069921875 299.6 488.8 299.75 491.4 300.85 492.95 301.3986328125 493.759765625 302.2 494.35 302.6994140625 494.97109375 303.3 495.4 304.85 496.45 307.25 496.55 307.996875 496.5740234375 309 496.45 309.0298828125 496.715625 309.05 496.95 309.4 500.45 310.3 502.5 311.5 505.5 314.05 506.6 316 507.45 318.15 506.7 320.3 505.95 321.3 504.1 322.6 501.9 321.95 498.3 320.95 494.4 320.75 492.45 320.6234375 491.39609375 320.65 489.75 L 324.75 483.55 Q 329.4 476.65 331.5 472.2 333.8 467.4 333.5 463.95 333.3 461.7 332 459.95 330.65 458.05 328.6 457.55 327.2 457.2 325.1 457.65 322.75 458.25 321.55 458.45 320 458.7 316.8 458.7 L 304.2 458.7 Q 302.3388671875 456.13359375 299.85 453.5 297.8 451.25 295.85 449.8 293.9 448.3 290.2 446.3 282.65 442.15 278.4 440.85 278.3419921875 440.832421875 278.25 440.8 278.5203125 438.516015625 278.65 436.1 279.1 428.1 278.3 412.55 M 316.5 471.25 L 317.85 471.25 Q 317.45 471.55 317.2 472.25 317.05 472.6 316.8 473.4 316.4646484375 474.1185546875 315.25 475.4 315.228515625 475.3916015625 315.2 475.35 314.964453125 475.0162109375 314.65 474.6 L 316.5 471.25 M 598.05 344.2 Q 596.9291015625 344.2904296875 595.85 344.85 594.45 345.5 593.6 346.7 592.75 347.9 592.55 349.4 592.35 350.9 592.85 352.3 593.1 353.05 593.75 354 594.1 354.55 594.8 355.65 595.85 357.4 596.8 360.75 597.95 364.6 598.55 365.95 599.85 368.65 600 369.1 600.45 370.45 600.75 373.95 601.01328125 376.9623046875 601.45 379.45 600.6615234375 380.943359375 600.55 383.1 600.55 383.2 600.7 388.25 600.85 393 599.15 397.55 597.75 401.3 594.8 405.4 593 407.9 589.1 412.4 L 581.75 420.8 Q 576.45 426.9 573.6 429.7 564.75 438.5 553.5 444.35 542.3 450.2 530 452.4 527.45 452.85 526.6 453.05 524.7 453.5 523.4 454.2 521.75 455.05 520.75 456.4 519.6 457.9 519.55 459.55 519.55 461.45 520.95 463.05 522.3 464.6 524.25 465.2 527.1 466.1 532 465.15 540.05 463.55 549.85 459.85 564.25 454.45 572.6 448.3 577.35 444.85 582.35 439.7 584.5603515625 437.424609375 587.55 434 587.919921875 434.393359375 588.35 434.75 590.35 436.35 592.85 436.45 593.9650390625 436.487109375 595.05 436.25 595.779296875 438.58046875 597.9 439.6 594.2 445.75 590.1 450.85 587.015625 454.7142578125 584 457.6 583.2505859375 457.6771484375 582.35 457.95 581.8 458.1 579.55 458.95 575.35 460.6 569.95 461.75 566.45 462.5 560 463.45 551.95 464.75 547.1 465.15 545.3 465.3 542.05 465.4 538.45 465.5 537 465.6 529.35 465.95 520.7 467.55 518.6 468 517.55 468.4 515.85 469 514.8 470.05 513.6265625 471.191796875 513.3 472.75 512.614453125 472.80390625 511.95 472.85 510.486328125 472.9705078125 509.3 473.2 507.6736328125 473.5408203125 506.6 474.1 504.8 475 503.7 476.7 502.55 478.45 502.85 480.3 503.1 481.95 504.5 483.25 505.75 484.45 507.5 484.95 508.31171875 485.208203125 509.45 485.3 510.7275390625 486.241796875 512.45 487.25 L 514.35 488.35 477.9 488.3 Q 472.05 488.3 469.1 488.45 464.2 488.65 460.35 489.3 455.0205078125 490.1490234375 453.1 492.8 453.0091796875 492.783984375 452.9 492.75 451.4 492.35 449.85 492.75 448.7158203125 493.0427734375 447.85 493.7 446.4150390625 492.4322265625 443.9 492.1 443.45 492 439.2 491.8 436.65 491.75 433.1 491.15 429.05 490.45 427.05 490.1 419.8 488.9 410.75 488.55 405.05 488.3 394.4 488.35 392.1 488.35 390.85 488.55 388.9 488.85 387.65 489.75 385.7 491.2 385.5 493.85 385.35 496.55 387.05 498.25 388.45 499.6 390.85 500.05 392.4 500.35 395.3 500.35 417.05 500.35 438.25 504.4 L 434.45 510.45 Q 433.15 512.55 432.2 513.65 430.75 515.25 429.15 515.85 427.75 516.4 424.4 516.3 401 515.2 374.5 513.1 372.25 512.9 371 513 369 513.1 367.65 513.85 366.3 514.55 365.45 515.85 364.55 517.15 364.4 518.65 364.25 520.15 364.85 521.6 365.4 523 366.55 524 367.5 524.8 369.05 525.4 369.15 525.4 371.85 526.3 375.55 527.5 383.05 531.15 390.2 534.7 394.25 535.85 398.75 537.15 404.55 537.5 408.2 537.75 415.05 537.65 419.4 537.6 421.75 537.35 425.4 536.95 428.15 535.85 430.9 534.75 433.75 532.45 435.75 530.85 438.6 527.95 443.5248046875 523.0251953125 445.95 519.1 444.1041015625 534.555859375 443.65 550.05 443.403515625 549.4712890625 443.05 549 442.2 547.85 440.85 547.25 439.45 546.65 438 546.8 436.55 546.95 435.35 547.8 434.1 548.7 433.5 550 430.75 547.5 425.6 545.1 422 543.35 421 542.7 419.5 541.6 418.7 541.05 417.3 540.1 416.2 539.75 414.05 539.1 411.8 540.25 409.6 541.45 408.9 543.6 408.15 546.05 409.5 548.7 410.7 551.1 413.05 552.7 414.8 553.9 417.8 555.15 422.25 557 422.75 557.25 424 557.85 424.15 558.6 424.3 559.1 424 559.8 423.85 560 423.25 560.95 422.65 561.85 421.8 564.3 421 566.5 420.15 567.5 419 568.85 417.1 569.45 415.35 569.95 413.4 569.7 410.95 569.35 406.55 567.15 L 391.7 559.7 Q 387.95 557.75 385.6 557.5 384.1 557.45 383.4 557.35 382.1 557.2 381.35 556.65 380.1 555.75 379.85 553.65 379.75 552.75 379.95 549.9 380.1 547.4 379.35 545.4 378.5 543.1 376.65 542 374.95 541 372.85 541.4 370.75 541.8 369.5 543.35 368.05 545.25 367.95 549.6 367.85 554.4 368.3 557.75 368.95 562.75 371.05 565.05 373.05 567.3 377.6 568.45 384.3 570.1 385.15 570.45 385.7 570.7 388.3 572.1 390.2 573.1 391.5 573.45 389.95 575.5 390.35 578.3 390.75 581.1 392.85 582.55 394.05 583.4 395.9 583.85 396.4 584 399.25 584.5 401.05 584.85 404.45 585.75 407.95 586.7 409.6 587.05 413.8 587.9 421.4 588.2 L 431.2 588.6 Q 434.3 588.75 436.05 588.45 438.7 588.05 440.3 586.65 442.3 584.85 443.25 580.6 443.6830078125 578.71171875 444 576.6 444.0849609375 578.465625 444.2 580.3 444.390234375 583.506640625 444.75 588.4 444.658984375 588.534375 444.55 588.65 443.2 590.15 442.85 592.55 442.7052734375 593.50546875 442.7 594.85 440.9837890625 593.42578125 438.95 592.8 436.6 592.05 433.25 592.2 428.4 592.5 426.55 594.95 425.5 596.3 425.5 598.15 425.5 599.95 426.5 601.4 427.45 602.8 429.15 603.6 430.75 604.35 432.5 604.25 435.1 604.15 435.3 605.25 435.35 605.85 434.65 606.75 433.2 608.7 432.1 609.7 430.55 611.15 428.9 611.7 427.6 612.1 424.9 612.1 L 415.7 612.15 Q 412.65 612.2 411.15 612.5 408.6 613 407.15 614.4 405.6 615.9 405.45 618.25 405.401953125 618.802734375 405.45 619.3 401.6962890625 618.5412109375 398.7 617.1 397.85 616.7 395.15 615.2 392.95 613.95 391.55 613.4 388.6 612.45 387.15 611.85 385.8 611.3 383.7 610.1 L 378.35 607.15 Q 374.75 605.15 372.6 605.25 371.25 605.3 370.05 606 368.8 606.65 368.05 607.8 366.5 610.25 367.55 613.05 368.2 614.6 370.15 616.35 372.6 618.45 375.1 619.65 375.75 619.95 377 620.5 378.1 621 378.8 621.45 379.1 621.65 380.45 622.7 381.45 623.5 382.15 623.8 383 624.15 385.1 624.45 387.05 624.7 387.95 625.2 388.45 625.45 389.3 626.15 390.15 626.8 390.6 627.05 391.7 627.7 394.2 628.35 395.65 628.85 398.25 630.45 400.35 631.4 404.45 631.9 407.8974609375 632.2642578125 411.35 632.4 411.383984375 632.4580078125 411.4 632.5 409.8 633.4 406.25 634.75 404.75 635.45 402.05 637.25 399.3 639.05 397.8 639.75 394.7 640.95 393.2 641.65 391.79140625 642.3271484375 390.8 643.1 389.6833984375 643.72109375 388.85 644.35 385.75 646.65 385.45 649.65 385.25 651.4 386.15 653 387.05 654.6 388.6 655.35 390.25 656.2 393.75 656.2 L 408.3 656.2 Q 408.7931640625 656.2 409.25 656.2 409.226953125 656.32109375 409.2 656.45 408.7 658.75 410.05 660.25 410.95 661.25 412.6 661.7 413.7 662 415.7 662.15 446.6 664.05 478.7 664.6 486.4 664.7 490.3 664.6 496.75 664.4 501.85 663.6 507 662.8 513.1 661.15 517.3 660 524.15 657.75 535.2 654.25 546.2 650.55 562.05 645.25 570.45 641.7 583.6 636.1 592.95 629.4 600.35 624.2 603.15 618.85 604.85 615.55 605.5 610.95 605.9 608.2 606.1 602.55 606.3 596 606.15 592.75 605.95 587.3 604.85 583.05 603.9 579.3 601.8 574.8 600.85 572.8 597.75 566.95 591.45 554.95 588 545.1 583.7048828125 532.9638671875 582.85 521.9 583.963671875 520.211328125 584.9 516.7 586.9 516.95 588.8 516.45 590.8 515.9 592.15 514.6 593.55 513.2 593.95 511.2 594.35 509.1 593.4 507.45 592.9 506.6 591.25 505.05 589.75 503.65 589.3 502.6 588.3 500.35 589.9 496.4 591.2197265625 493.0619140625 593.2 489.35 602.130859375 483.3326171875 606.25 479.9 613.35 474.05 617.35 467.9 619.3 464.9 620.35 464 621.1630859375 463.2642578125 622.75 462.2 624.785546875 462.4392578125 626.25 461.4 628.15 460 628.6 457 628.8 455.25 628.55 454.15 628.3033203125 453.1140625 627.1 450.9 627.052734375 450.53046875 626.95 450.15 626.259375 447.76640625 624.7 445.5 624.6427734375 445.2939453125 624.55 445.05 623.7 443.1 623.5 441.9 623.35 439.55 623.15 438.4 623.05 437.55 622.75 436.35 622.35 435.05 622.15 434.4 621.8 433 621.25 428.95 L 619.85 417.2 Q 619.530078125 414.5208984375 618.95 413.05 620.5384765625 411.4015625 621.45 410.35 623.35 408.15 627.25 402.65 632.45 395.25 637.1 388.15 638.25 386.4 638.75 385.45 639.5 383.85 639.6 382.5 639.85 380.1 638.2 378 636.6 375.95 634.25 375.55 634.7 372.35 632.55 368.95 631.05 366.6 627.75 363.4 L 608.5 344.95 Q 607.05 343.55 606.1 342.9 604.65 341.9 603.25 341.7 600.65 341.3 598.6 343.55 598.3107421875 343.875390625 598.05 344.2 M 605.8 453.7 Q 606.25 453.4 606.55 452.3 L 606.9 451.9 607.45 451.5 Q 607.8 451.35 608.1 451.4 L 608.1 452.6 608.05 452.9 607.85 453.2 607.6 453.45 605.8 453.7 M 558.15 500.65 Q 558.5 500.35 559.1 500.55 L 559.9 501.05 Q 560.7 501.5 562.5 501.8 562.2 502.7 562.25 503.6 560.65 503.4 559.85 502.45 L 559.45 501.95 558.9 501.55 Q 558.4 501.3 558.15 500.65 M 572.05 507.5 Q 572.1 507.45 572.45 507.05 572.7 506.8 572.95 506.7 573.2 506.5 573.65 506.6 573.6 507.25 574.35 508.4 573.85 508.65 573.6 508.6 L 573.4 508.55 572.6 508.2 Q 572.25 507.7 572.05 507.5 M 587.15 576.6 Q 586.15 575.3 585.9 574.55 585.75 573.4 585.6 572.8 585.3 572.05 585.15 571.65 584.95 570.95 585.05 570.45 L 585.3 570.45 Q 585.4 571.15 586.05 572.45 586.2 572.75 586.35 573.4 586.4 573.55 586.95 574.95 587.3 575.95 587.8 576.5 588.55 577.35 588.5 577.75 587.85 577.6 587.15 576.6 M 570.7 530.35 Q 568.45 527.3 568.75 520.7 568.7640625 520.34609375 568.75 520 569.36328125 520.251171875 569.85 520.5 569.56015625 522.1427734375 569.7 524.1 569.8 526.35 570.7 530.35 M 521.75 526.75 Q 522.060546875 526.6447265625 522.35 526.55 522.5087890625 527.3294921875 522.9 528.05 523.0681640625 528.3685546875 523.25 528.65 520.781640625 529.010546875 517.5 529.7 511.5677734375 530.9416015625 508.65 531.25 L 521.75 526.75 M 556.55 515.25 Q 556.609765625 516.05 556.7 516.9 L 561.95 569.45 Q 562.5 574.45 562.55 577.2 562.6 581.5 561.8 584.9 560.1 592.45 552.7 600.35 548.77421875 604.577734375 543.9 608.35 544.0296875 607.7826171875 544.1 607.15 544.25 605.7 544.2 603.05 544.1 592.45 543.45 586.4 543.0451171875 583.1265625 542.2 581 542.759765625 579.9248046875 542.95 578.45 543.05 577.6 543.1 575.6 L 543.15 551.8 Q 543.15 546.05 542.65 543.55 542.45 542.45 541.7 539.7 541.25 537.55 541 536.45 540.7216796875 535.2748046875 540.45 534.3 540.8919921875 534.1126953125 541.3 533.8 543.15 532.4 543.75 529.5 544.1 527.7 544.05 524.2 544.0107421875 515.6677734375 545.2 507.05 549.2884765625 509.883984375 553.3 512.9 555.07421875 514.2578125 556.55 515.25 M 531.45 517.4 Q 531.35 514.7 529.35 513.5 531.951953125 509.8951171875 533.15 506.45 532.228515625 514.4994140625 532.1 521.2 531.92890625 521.0572265625 531.75 520.9 531.369140625 520.576953125 530.95 520.3 531.510546875 518.97265625 531.45 517.4 M 502.45 628.8 Q 500.269140625 629.54609375 497.95 630.3 493.92421875 631.608984375 489.85 632.85 489.9892578125 632.2248046875 489.9 631.6 489.7583984375 630.2314453125 488.65 628.7 495.56015625 628.9921875 502.45 628.8 M 436.05 645.95 Q 436.24765625 646.3498046875 436.45 646.7 435.1390625 646.9755859375 433.8 647.25 433.9119140625 647.19765625 434 647.15 435.21875 646.480859375 436.05 645.95 M 487.75 537 Q 491.35 536.7 495.75 535.5 496.145703125 535.3892578125 496.6 535.25 495.6 536.66328125 495.6 538.25 495.65 540.15 497.15 541.75 498.55 543.2 500.55 543.8 502.25 544.25 504.45 544.15 505.8 544.1 508.45 543.7 L 523.95 541.4 523.95 550.15 Q 523.95 552.2 523.45 553.05 522.8 554.35 520.65 555.2 518.1 556.25 514.25 556.95 509.9 557.7 507.7 558.1 501.25 559.7 497.95 560.25 494.95 560.8 491.05 560.95 489.1 561.05 484.1 561.1 L 470.45 561.15 Q 465.55 561.15 463.45 562.65 461.8 563.85 461.25 565.95 460.7 568.05 461.55 569.9 461.75 570.35 462.3 571.25 462.85 572.15 463.05 572.65 463.25 573.2 463.5 574.45 463.75 575.6 464 576.2 465.1 578.65 468.25 579.35 470 579.8 473.7 579.6 481.9 579.25 498.45 579.65 513.1 579.55 522.65 576.7 526.05 575.7 527.2 574.15 528.45 572.45 528 570.1 527.6 567.85 526 566.2 528.983203125 565.190234375 531.25 563.25 L 531.2 575.5 Q 531.2 575.9896484375 531.2 576.45 529.0953125 577.629296875 528.15 580.15 527.1 582.95 528.4 585.3 528.75 585.95 529.55 586.95 530.5 588.1 530.8 588.55 531.65 590 531.95 592.15 532.15 593.5 532.15 595.95 L 532.15 605.15 Q 532.21640625 607.7380859375 532.45 609.3 532.2908203125 609.336328125 532.1 609.35 530.85 609.5 529.35 610.2 527.6 611.1 526.7 611.5 525.7 612 522.2 613.15 518.25 614.5 515.6 615.1 509.95 616.4 498.95 616.5 491.55 616.6 487.5 616.4 481.2 616.1 476.2 615 474.2 614.6 473.65 614.5 472.15 614.3 471.05 614.55 469.6 614.85 468.45 615.9 467.3 616.9 466.8 618.35 466.3 619.75 466.55 621.3 466.68359375 622.1009765625 467 622.8 466.4265625 622.6248046875 466 621.25 465.45 619.25 462.75 616.35 460 613.3 459.35 611.5 458.85 609.1 458.3 608.05 457.5302734375 606.6431640625 456 605.9 455.884375 605.1166015625 455.75 604.4 457.3126953125 602.3236328125 457.4 598.05 457.55 593.55 457 587.2 456.35 580 456.05 576.35 454.2634765625 554.3314453125 457.35 526.8 457.4388671875 526.9404296875 457.5 527.05 458.5 528.85 461 530 461.5 530.25 465.55 531.65 467.1 532.2 470.15 533.5 473.15 534.8 474.7 535.3 481.15 537.55 487.75 537 M 514.05 509.15 L 510.55 511.2 Q 507.3 513.05 506.1 513.6 502.7 515.3 498.6 516.25 494.2 517.25 485.9 517.55 L 465.5 518.35 Q 463.15 518.45 461.95 518.7 460 519.1 458.75 520.1 458.402734375 520.3994140625 458.1 520.75 458.4626953125 518.095703125 458.85 515.4 459.2 512.65 459.2 512.3 459.35 510.5 459.15 509.15 458.890234375 507.1009765625 457.95 505.65 458.0849609375 505.1021484375 458.1 504.5 458.1 503.7 457.9 502.6 457.8232421875 502.2349609375 457.75 501.95 458.596875 502.0125 459.55 501.95 459.85 501.95 464.85 501.15 467.9 500.6 474.05 500.6 L 520.65 500.45 Q 521.8 500.45 521.9 501.05 521.35 503.6 518.9 505.8 517.3 507.25 514.05 509.15 M 441.95 619.1 Q 441.9712890625 619.99765625 441.95 620.65 441.000390625 619.918359375 439.85 619.65 441.065625 618.2359375 441.95 617.15 441.9203125 618.0009765625 441.95 619.1 M 619.75 377.3 L 619.7 372.75 620.8 373.85 Q 621.5 374.55 621.6 375.05 621.6 375.65 621.15 376.3 620.5171875 377.3576171875 619.75 378.5 619.75 377.9375 619.75 377.3 M 476.85 341.4 Q 478.45 339.15 483.1 337.55 490.75 334.85 499.2 333.45 501.05 333.1 501.75 332.95 503.15 332.55 504.1 331.9 506.25 330.45 506.35 327.5 506.4 324.5 504.35 322.95 502.4 321.4 498.25 321.3 494.65 321.2 492.35 321.75 491.85 321.85 487.7 323.2 486.6 323.55 482.75 324.45 479.65 325.15 477.8 325.9 475.5 326.85 471.8 329.2 468.5 331.3 467.3 332.75 466.15 334.2 465.2 336.55 464.7 337.9 463.75 340.7 463.05 342.5 461.5 345.7 459.8 349.1 459.15 350.65 457.25 355.3 455.75 363.8 453.95 373.75 452.9 377.25 452.5201171875 378.5794921875 451.7 381.1 L 447.95 375.55 Q 444.85 370.9 443.85 369.1 442.85 367.25 441.55 364.45 L 438.8 358.7 Q 435.45 351.7 434.2 347.8 433.45 345.2 432.85 342.55 L 430.1 331.2 Q 429.5 328.6 428.85 327.45 428 325.9 426.6 324.95 425.1 324 423.45 323.9 421.75 323.8 420.2 324.65 418.6 325.55 417.9 327.05 417.25 328.4 417.4 330.3 417.45 331.5 417.95 333.7 420.6 345.45 422.45 351 424.4978515625 357.0958984375 429.55 368.05 428.450390625 369.719140625 427.15 372.45 421.6 384.25 419.25 391.1 415.65 401.7 415.4 410.7 415.4 411.85 415.35 414.05 415.35 416 415.15 417.35 414.7 420.35 412.5 425.15 409.05 432.6 405.1 437.85 403.3 440.25 400.2 443.7 396.6 447.7 394.7 449.55 390 454 384.8 456.9 382.8 458 382.05 458.5 380.6 459.5 379.85 460.7 379.05 462.05 379.15 463.65 379.25 465.25 380.15 466.5 381.95 468.95 386 469.15 387.4 469.2 389.3 468.9 390.4 468.75 392.6 468.35 394.55 468.05 398.95 467.7 403.1 467.4 405.3 467 413.4 465.55 421.65 459.75 426.3814453125 456.4654296875 432.15 450.9 432.8998046875 452.1080078125 434.15 452.75 432.65 452.4 431.05 452.9 429.5 453.35 428.35 454.45 425.95 456.85 426.2 460.2 426.35 462.6 428.65 466.5 432.4 472.8 436.65 478.15 439.4 481.65 441.65 483.15 445.4 485.65 449.85 485.1 451.55 484.9 455.35 483.65 458.35 482.55 459.8 481.85 462.25 480.5 463.45 479.85 463.65 479.75 465.45 478.85 466.7 478.3 467.45 477.8 470.45 476.05 473.6 472.5 476.15 469.6 476.9 467.5 478.15 464.15 476.7 460.5 475.2 456.9 472 455.2 470.9 454.7 470.35 454.45 469.35 453.95 468.8 453.5 468.4 453.2 467.75 452.45 467.05 451.7 466.65 451.4 465.65 450.6 462.8 449.85 464.4 448.15 464.2 445.5 464 442.9 462.15 441.45 460.65 440.3 458.25 440 457.3056640625 439.8740234375 455.85 439.85 455.9615234375 439.630078125 456.1 439.45 456.65 438.7 458.25 437.7 460.05 436.1 460.05 433 460 432 459.8 430.45 459.45 428.25 459.4 427.9 459.2 426.45 459.2 424.4 459.25 422.05 459.2 420.85 459.1 417.55 458.4 413.05 457.5 407.85 457.05 405.25 456.2755859375 400.321875 455.8 394.9 456.8552734375 393.70625 457.05 392.15 458.1 392.0900390625 459.15 391.55 460.8 390.7 461.85 389.1 463.25 387.1 464.25 382.35 L 467.6 366.75 Q 469.4 358.45 471 354.5 471.35 353.65 473.05 350.2 474.3 347.6 474.9 345.85 476.15 342.4 476.85 341.4 M 438.25 457.8 L 438 457.8 Q 437.55 454.95 435.05 453.45 436.35 453.45 438.25 453.9 L 438.25 457.8 M 443.45 392.4 Q 443.548046875 392.5748046875 443.65 392.75 L 443.75 431.95 Q 443.75 437.55 443.4 440.3 443.3787109375 440.4767578125 443.35 440.65 L 442.3 440.75 Q 441.023828125 440.8138671875 439.95 440.9 440.3619140625 439.328125 440 437.85 439.7 436.5 438.25 434.4 436.75 432.15 436.4 430.95 435.95 429.55 436.15 427.7 436.25 426.65 436.7 424.4 439.2814453125 412.7404296875 442.75 390.8 443.07109375 391.538671875 443.45 392.4 M 579.15 290.35 Q 578.35 289.35 576.65 287.8 L 570.65 282.3 Q 565.45 277.5 563.25 274.7 561.4 272.3 560.8 271.7 559.3 270.15 557.7 269.65 555.1 268.85 552.9 270.5 551.35 271.65 550.85 273.75 550.3 275.7 550.85 277.7 551.75 280.95 555.25 284.2 555.95 284.85 558.3 286.8 560.2 288.4 561.25 289.5 562.15 290.45 564.7 293.7 566.8 296.35 568.4 297.7 570.6 299.6 573.35 300.1 576.3 300.7 578.4 299.2 579.75 298.2 580.4 296.6 581.05 295 580.7 293.4 580.35 291.9 579.15 290.35 M 672.4 466.2 Q 672.3138671875 466.20625 672.2 466.2 L 665.25 455.2 Q 662.65 451 660.5 449.15 658.6 447.6 656.25 446.85 653.9 446.15 651.55 446.35 650.15 446.45 647.65 447.1 644.95 447.8 643.7 447.95 642.6 448.1 640.55 448.05 638.35 448.05 637.35 448.15 633.4 448.45 631.75 450.7 630.6 452.2 630.8 454.3 630.95 456.3 632.2 457.8 633.4 459.25 635.3 459.95 637.15 460.6 639.1 460.45 639.65 461.5 640.3 463.95 640.9 466.3 641.55 467.4 642.15 468.5 643.3 469.55 643.8 470.05 645.45 471.4 653.25 477.55 660.15 483.9 671.9 494.6 678.65 503.8 681.3 507.45 686.2 515 690.75 521.6 694.65 525.4 697.3 528 699.55 528.8 702.95 530.05 705.35 528.45 707.25 527.2 707.75 524.65 708.15 522.25 707.25 519.9 706.55 518.05 704.8 515.9 702.75 513.5 701.75 512.25 698.8 508.75 694 500.95 690.676953125 495.57578125 679.5 477.75 682.2541015625 477.353515625 687.45 476.25 L 697.55 474.1 Q 701.85 473.2 703.6 472.05 705.05 471.15 705.95 469.8 706.9 468.35 706.85 466.8 706.8 464.95 705.35 463.45 704 462 702.1 461.45 699.2 460.6 694.5 461.65 694.25 461.7 683.5 464.3 676.9 465.95 672.4 466.2 Z"/>
</g>

<g id="Layer3_0_STROKES_1_FILL">
<path fill="#FFCC00" stroke="none" d=" M 343.55 509.9 L 343.15 508.1 343.05 508 343 508.05 342.05 510.05 342 510.2 341.9 510.35 337.65 522.75 337.3 524.15 Q 336.75 526.3 335.9 530.1 L 333.75 543.15 Q 333.25 547.75 333.1 549.8 L 332.7 556.3 Q 332.6 560.5 332.65 562.4 L 333.35 574.1 333.8 576.95 333.8 577.1 333.85 577.25 334.3 579.4 334.4 579.5 334.45 579.45 335.4 577.45 335.45 577.3 335.55 577.15 336.65 574.5 340.15 563.35 Q 340.7 561.2 341.55 557.4 L 343.7 544.35 Q 344.2 539.75 344.35 537.7 L 344.75 531.2 Q 344.85 527.05 344.8 525.1 L 344.1 513.4 343.65 510.55 343.65 510.4 343.6 510.25 343.55 509.9 M 604.65 450.65 L 599.75 454.7 Q 597.8 456.8 597.45 457.2 L 594.7 460.75 590.2 468.7 590.15 468.9 589.9 469.55 Q 589.55 470.3 588.7 472.7 L 587.55 477.05 587.2 479.2 587.05 482.4 Q 587.05 482.55 587.15 482.55 L 587.2 482.55 588.4 481.9 588.45 481.85 588.95 481.6 595.15 476.7 Q 597.1 474.6 597.45 474.2 L 597.75 473.85 597.85 473.7 600.2 470.65 604.7 462.7 604.75 462.5 605 461.85 Q 605.35 461.1 606.2 458.7 L 606.45 457.9 607.7 452.2 607.7 451.9 607.85 449 Q 607.85 448.85 607.75 448.85 L 607.7 448.85 606.5 449.5 606.45 449.55 605.95 449.8 604.65 450.65 M 121.3 588.65 L 112.35 567.2 112.15 566.9 111.65 565.9 111.55 565.85 111.5 565.95 111.5 566.7 115.65 595.8 115.75 596.15 116.6 600.4 Q 116.75 601.35 117.2 603.2 L 119.05 611.65 Q 119.25 612.6 119.95 613.4 L 143.8 638.65 157.25 651.3 175.4 666.25 177.45 667.7 Q 177.5 667.75 177.6 667.65 L 177.6 667.55 175.6 664.4 175.4 664.15 174.9 663.35 153.8 636 127.95 608.05 127.75 607.9 121.55 589.35 121.4 589 121.3 588.65 M 310.45 469.1 L 307.25 463.05 303.4 457.7 302.95 457.2 Q 302.2 456.3 300.6 454.7 L 295.45 450.45 295.25 450.35 294.4 449.8 294 449.6 293.95 449.55 292.65 448.85 292.5 448.9 292.5 450.5 293.95 457.95 295.55 462.3 298.75 468.35 302.6 473.7 303.05 474.2 Q 303.8 475.1 305.4 476.7 L 306.55 477.8 310.55 480.95 310.75 481.05 311.6 481.6 312 481.8 312.05 481.85 313.35 482.55 313.5 482.5 313.35 479.45 312.65 475.7 310.45 469.1 M 270.5 367.8 L 270.3 368 270 368.5 269.8 368.7 269.7 368.85 269.65 368.95 268.45 371 268.35 371.25 268.2 371.5 267.15 374.3 266.6 376.55 266.6 376.7 266.55 376.85 266.55 377.15 266.4 377.95 266.35 380.45 266.7 383.3 267.1 384.8 267.15 385.1 267.2 385.2 267.2 385.25 267.25 385.4 267.6 386.2 Q 267.6 386.4 267.75 386.25 L 268.75 385.8 268.8 385.75 269.7 385.25 271.5 383.95 274.1 381.3 274.25 381.1 274.45 380.9 274.75 380.4 274.95 380.2 275.05 380.05 275.1 379.95 276.3 377.9 276.4 377.65 276.55 377.4 277.6 374.6 278.15 372.35 278.15 372.2 278.2 372.05 278.2 371.75 278.35 370.95 278.4 368.45 278.2 366.45 277.6 363.8 277.55 363.7 277.55 363.65 277.5 363.5 277.15 362.7 Q 277.15 362.5 277 362.65 L 276 363.1 275.95 363.15 275.05 363.65 273.25 364.95 270.65 367.6 270.5 367.8 M 233.8 377 Q 233.65 377.95 233.95 378.7 L 241.4 397.1 246.75 407.85 246.85 407.9 246.9 407.8 246.7 404.25 242.5 377.7 252.2 339.05 256.55 336 256.95 335.65 260.35 333.15 260.6 333 260.8 332.8 263.3 330.85 263.75 330.55 271.15 324.45 271.25 324.4 277.15 319 277.15 318.85 277 318.85 273.7 320 273.45 320.05 269.55 321.55 260.6 325.4 260.15 325.65 257.25 326.95 257 327.1 245.9 332.7 Q 244.55 333.4 244.05 334.9 L 234.9 371.3 233.8 377 M 631.65 371 L 630.45 369 630.4 368.85 630.3 368.75 630.15 368.5 629.8 368.05 629.65 367.8 627.25 365.3 625.1 363.65 624.2 363.15 624.15 363.1 623.15 362.65 Q 623 362.5 623 362.7 L 622.65 363.5 622.6 363.65 622.6 363.7 622.55 363.8 622.15 365.15 622.1 365.55 621.9 366.45 621.7 368.45 621.75 370.9 621.9 372.05 621.9 372.2 621.95 372.3 622.15 373.45 622.5 374.6 622.55 374.9 624.3 378.95 624.95 379.9 625 380.05 625.1 380.15 625.25 380.4 625.6 380.85 625.75 381.1 628.15 383.6 630.3 385.25 631.2 385.75 631.25 385.8 632.25 386.25 Q 632.4 386.4 632.4 386.2 L 632.75 385.4 632.8 385.25 632.8 385.2 632.85 385.1 632.95 384.8 633.5 382.45 633.7 380.45 633.65 378 633.5 376.85 633.5 376.7 633.45 376.6 633.25 375.45 632.9 374.3 632.85 374 631.65 371 M 568.2 290.95 L 568.1 290.75 563.15 284.05 559.95 280.75 559.75 280.6 559.25 280.15 Q 558.4 279.35 556.6 277.95 L 554.05 276.15 553.4 275.8 552.85 275.4 549.15 273.55 547.9 273.1 Q 547.8 273.1 547.75 273.2 L 547.75 273.25 547.9 274.35 547.95 274.55 547.95 274.65 548 274.75 548.3 276.15 548.4 276.45 548.45 276.7 549.25 279.2 552.4 285.8 552.6 286.15 552.75 286.35 552.85 286.55 557.8 293.25 561 296.55 561.2 296.7 561.7 297.15 Q 562.55 297.95 564.35 299.35 L 566.9 301.15 567.55 301.5 568.1 301.9 571.8 303.75 573.05 304.2 Q 573.15 304.2 573.2 304.1 L 573.2 304.05 573.05 302.95 573 302.75 573 302.65 572.95 302.55 572.65 301.15 572.55 300.85 572.5 300.6 571.7 298.1 568.55 291.5 568.35 291.15 568.2 290.95 M 336.5 285.45 L 332.6 290.9 332.5 291.1 332.25 291.5 Q 331.5 292.75 330.6 294.55 L 329.9 296 328.15 300.85 328.1 301.15 327.75 302.55 327.75 302.65 327.7 302.75 327.7 302.9 327.5 304.05 327.6 304.2 327.65 304.2 328.9 303.75 329.1 303.65 329.5 303.5 330.4 303.05 330.7 302.95 335.75 299.85 339.6 296.7 344.25 291.85 348.15 286.4 348.25 286.2 348.5 285.8 Q 349.25 284.55 350.15 282.75 L 352.6 276.45 352.65 276.15 353 274.75 353 274.65 353.05 274.55 353.05 274.4 353.25 273.25 353.15 273.1 353.1 273.1 351.85 273.55 351.65 273.65 351.25 273.8 350.35 274.25 350.05 274.35 345 277.45 341.3 280.45 336.5 285.45 M 655.8 334.9 Q 655.35 333.45 654 332.7 L 647 329.05 630.65 321.6 623.15 318.85 Q 623 318.8 623 318.9 L 623 319 636.25 330.55 647.65 339.05 654.5 368.4 657.25 377.75 653.5 400.05 653.5 400.3 652.9 407.8 652.95 407.9 653.05 407.85 656.55 401.15 665.8 378.7 Q 666.1 377.9 665.95 377.05 L 663.3 363.55 655.8 334.9 M 557.75 508.1 L 557.35 509.9 557.3 510.25 557.25 510.4 557.25 510.55 556.8 513.4 556.05 525.1 Q 556.05 529.05 556.15 531.2 L 556.5 537.7 Q 556.65 539.75 557.15 544.35 L 559.3 557.4 Q 559.8 559.85 560.7 563.35 L 562.55 569.85 565.25 577.15 565.35 577.3 565.4 577.45 566.35 579.45 566.45 579.5 566.5 579.4 566.95 577.25 567 577.1 567 576.95 567.45 574.1 568.2 562.4 Q 568.2 558.45 568.1 556.3 L 567.75 549.8 Q 567.6 547.75 567.1 543.15 L 564.95 530.1 Q 564.5 527.65 563.55 524.15 L 562.1 518.85 559 510.35 558.9 510.2 558.85 510.05 557.9 508.05 557.8 508 557.75 508.1 M 786.55 569.6 L 786.75 567.4 786.75 567.05 786.8 566.7 786.8 565.95 786.75 565.85 786.65 565.9 779.65 581.9 773.75 598.2 770.7 607.85 767.95 610.7 Q 767.35 611.25 766.25 612.45 L 754.55 624.95 728.3 657.25 723.75 663.9 Q 723.65 663.95 723.55 664.15 L 721.4 667.55 Q 721.35 667.6 721.45 667.7 L 721.55 667.7 740.9 651.9 741.1 651.65 760.05 633.4 778.5 613.4 Q 779.15 612.7 779.4 611.65 L 782.65 596.15 782.75 595.8 786.55 569.95 786.55 569.6 Z"/>
</g>

<g id="Layer1_0_FILL">
<path fill="#3F342E" stroke="none" d=" M 450 239.8 Q 449.5 237.75 448 236.55 446.5 235.3 444.4 235.25 442.35 235.2 440.75 236.3 440.3 236.6 438.35 238.7 434.226171875 243.170703125 428.7 245 394.445703125 244.9880859375 360.15 244.95 360 244.95 359.85 244.9 359.7 244.85 359.5 244.8 359.05 244.8 358.6 244.75 357.9 244.7 357.2 244.65 357.05 244.65 356.9 244.6 356.7 244.55 356.5 244.5 356.35 244.45 356.15 244.35 355.85 244.25 355.55 244.15 355.3 244.05 355.05 244 354.85 243.95 354.65 243.95 354.2 243.9 353.75 243.85 353.55 243.8 353.3 243.7 353.1 243.6 352.85 243.5 352.65 243.35 352.4 243.25 352.15 243.15 351.9 243.05 351.65 242.9 351.4 242.8 351.25 242.7 351.1 242.6 350.85 242.45 350.65 242.35 350.5 242.25 350.4 242.15 350.3 242 350.2 241.9 350.05 241.8 349.9 241.7 349.8 241.6 349.65 241.45 349.55 241.35 349.45 241.25 349.35 241.15 349.2 241 349.15 240.9 349.05 240.8 348.9 240.7 348.75 240.55 348.7 240.45 348.6 240.35 348.55 240.25 348.45 240.1 348.4 240 348.3 239.9 348.2 239.8 348.1 239.7 348.05 239.55 348.05 239.45 347.95 239.35 347.9 239.25 347.8 239.1 347.75 239 347.65 238.9 347.6 238.8 347.5 238.65 347.45 238.55 347.35 238.45 347.3 238.35 347.2 238.2 347.15 238.1 347 238 346.9 237.9 346.85 237.8 346.75 237.65 346.65 237.55 346.55 237.45 346.5 237.35 346.45 237.2 346.4 237.1 346.3 237 346.25 236.9 346.25 236.75 346.15 236.65 346.1 236.55 346.05 236.45 346 236.3 345.95 236.2 345.85 236.1 345.85 236 345.8 235.9 345.75 235.75 345.7 235.65 345.7 235.55 345.7 235.45 345.7 235.3 345.65 235.2 345.6 235.1 345.55 235 345.55 234.85 345.55 234.75 345.55 234.65 345.5 234.55 345.5 234.4 345.5 234.3 345.5 234.2 345.5 234.1 345.5 234 345.5 233.85 345.5 233.75 345.5 233.65 345.5 233.55 345.5 233.4 345.5 233.3 345.5 233.2 345.5 233.1 345.5 232.95 345.5 232.85 345.5 232.75 345.55 232.65 345.55 232.5 345.55 232.4 345.55 232.3 345.6 232.2 345.65 232.1 345.7 231.95 345.7 231.85 345.7 231.75 345.7 231.65 345.7 231.5 345.7 231.4 345.7 231.3 345.7 231.2 345.7 231.05 345.7 230.95 345.7 230.85 345.7 230.75 345.7 230.6 345.7 230.5 345.7 230.4 345.7 230.3 345.7 230.2 345.65 230.05 345.65 229.95 345.65 229.85 345.6 229.75 345.55 229.6 345.55 229.5 345.5 229.4 345.45 229.3 345.4 229.15 345.4 229.05 345.35 228.95 345.3 228.85 345.25 228.7 345.2 228.6 345.1 228.5 345.1 228.4 345.05 228.25 344.95 228.15 344.9 228.05 344.85 227.95 344.8 227.85 344.75 227.7 344.65 227.6 344.6 227.5 344.5 227.4 344.4 227.25 344.3 227.15 344.2 227.05 344.15 226.95 344.05 226.8 343.95 226.7 343.8 226.6 343.65 226.5 343.5 226.35 343.35 226.25 343.2 226.15 343.05 226.05 342.85 225.95 342.65 225.8 342.45 225.7 342.2 225.6 341.9 225.5 341.6 225.35 341.35 225.3 341.1 225.2 340.9 225.2 340.7 225.15 340.25 225.1 339.85 225.05 339.8 225.05 339.75 225.05 339.75 225.1 339.75 225.15 339.3 225.15 338.85 225.15 338.65 225.2 338.5 225.2 338.35 225.25 338.2 225.3 337.95 225.35 337.75 225.45 337.5 225.55 337.2 225.65 337 225.8 336.75 225.9 336.6 226 336.4 226.1 336.25 226.25 336.1 226.35 335.95 226.45 335.8 226.55 335.7 226.65 335.6 226.8 335.45 226.9 335.35 227 335.3 227.1 335.2 227.25 335.1 227.35 335 227.45 334.9 227.55 334.85 227.7 334.75 227.8 334.7 227.9 334.6 228 334.55 228.15 334.45 228.25 334.4 228.35 334.3 228.45 334.25 228.55 334.2 228.7 334.15 228.8 334.1 228.9 334 229 334 229.15 333.95 229.25 333.9 229.35 333.85 229.45 333.85 229.6 333.8 229.7 333.8 229.8 333.8 229.9 333.75 230.05 333.7 230.15 333.7 230.25 333.65 230.35 333.65 230.45 333.65 230.6 333.65 230.7 333.65 230.8 333.65 230.9 333.65 231.05 333.6 231.15 333.55 231.25 333.55 231.35 333.55 231.5 333.55 231.6 333.55 231.7 333.55 231.8 333.55 231.95 333.55 232.05 333.55 232.15 333.55 232.25 333.55 232.35 333.55 232.5 333.55 232.6 333.55 232.7 333.55 232.8 333.55 232.95 333.55 233.05 333.55 233.15 333.55 233.25 333.55 233.4 333.55 233.5 333.55 233.6 333.55 233.7 333.55 233.85 333.55 233.95 333.55 234.05 333.55 234.15 333.55 234.25 333.55 234.4 333.55 234.5 333.55 234.6 333.55 234.7 333.55 234.85 333.55 234.95 333.55 235.05 333.55 235.15 333.55 235.3 333.55 235.4 333.55 235.5 333.55 235.6 333.55 235.75 333.55 235.85 333.55 235.95 333.6 236.05 333.65 236.15 333.65 236.3 333.65 236.4 333.65 236.5 333.65 236.6 333.65 236.75 333.65 236.85 333.7 236.95 333.7 237.05 333.7 237.2 333.7 237.3 333.75 237.4 333.8 237.5 333.85 237.65 333.85 237.75 333.9 237.85 333.95 237.95 333.95 238.05 333.95 238.2 334 238.3 334 238.4 334.05 238.5 334.1 238.65 334.1 238.75 334.1 238.85 334.15 238.95 334.15 239.1 334.2 239.2 334.25 239.3 334.3 239.4 334.3 239.55 334.3 239.65 334.3 239.75 334.35 239.85 334.4 240 334.4 240.1 334.45 240.2 334.5 240.3 334.55 240.4 334.55 240.55 334.6 240.65 334.65 240.75 334.7 240.85 334.7 241 334.75 241.1 334.8 241.2 334.85 241.3 334.85 241.45 334.9 241.55 335 241.65 335.05 241.75 335.1 241.9 335.15 242 335.2 242.1 335.3 242.2 335.35 242.3 335.45 242.45 335.5 242.55 335.6 242.65 335.7 242.75 335.8 242.9 335.9 243 335.95 243.1 336.05 243.2 336.1 243.35 336.15 243.45 336.2 243.55 336.25 243.65 336.3 243.8 336.4 243.9 336.45 244 336.6 244.1 336.7 244.2 336.75 244.35 336.75 244.45 336.85 244.55 336.9 244.65 336.95 244.8 337 244.9 337.05 245 337.15 245.1 337.2 245.25 337.2 245.35 337.3 245.45 337.35 245.55 337.45 245.7 337.5 245.8 337.6 245.9 337.65 246 337.75 246.1 337.8 246.25 337.95 246.35 338.05 246.45 338.1 246.55 338.2 246.7 338.3 246.8 338.4 246.9 338.5 247 338.55 247.15 338.65 247.25 338.7 247.35 338.8 247.45 338.85 247.6 338.95 247.7 339.1 247.8 339.15 247.9 339.25 248 339.35 248.15 339.45 248.25 339.55 248.35 339.7 248.45 339.8 248.6 339.9 248.7 340 248.8 340.15 248.9 340.25 249.05 340.35 249.15 340.45 249.25 340.55 249.35 340.7 249.5 340.8 249.6 340.9 249.7 341 249.8 341.15 249.9 341.25 250.05 341.3 250.15 341.4 250.25 341.5 250.35 341.6 250.5 341.75 250.6 341.85 250.7 341.95 250.8 342.05 250.95 342.15 251.05 342.3 251.15 342.4 251.25 342.5 251.4 342.6 251.5 342.75 251.6 342.85 251.7 342.95 251.8 343.1 251.95 343.25 252.05 343.35 252.15 343.5 252.25 343.65 252.4 343.85 252.5 344.1 252.6 344.3 252.7 344.5 252.85 344.65 252.95 344.85 253.05 345.05 253.15 345.25 253.3 345.4 253.4 345.65 253.5 345.85 253.6 346.1 253.75 346.3 253.85 346.55 253.95 346.85 254.05 347.1 254.15 347.35 254.3 347.55 254.4 347.75 254.5 347.95 254.6 348.15 254.75 348.4 254.85 348.6 254.95 348.9 255.05 349.2 255.2 349.5 255.25 349.75 255.35 350 255.4 350.25 255.5 350.5 255.55 350.8 255.65 350.95 255.65 351.15 255.7 351.7 255.75 352.2 255.85 352.5 255.95 352.8 256.05 353.05 256.15 353.3 256.2 353.5 256.25 353.7 256.3 353.85 256.35 354 256.35 354.1 256.4 354.2 256.45 354.35 256.5 354.5 256.5 354.7 256.55 354.9 256.6 355.35 256.65 355.8 256.65 356.65 256.7 357.5 256.75 357.65 256.8 357.8 256.8 357.95 256.85 358.15 256.9 358.6 256.95 359.05 256.95 388.3265625 256.95 417.55 256.95 418.311328125 257.696875 419.25 258.15 420.9 258.9 423.95 258.7 428.6 258.4 433.1 256.95 441.80078125 256.95 450.5 256.95 450.95 256.95 451.4 256.9 451.6 256.85 451.75 256.8 451.9 256.8 452.05 256.75 452.2 256.7 452.3 256.65 452.45 256.6 452.65 256.5 452.9 256.4 453.2 256.3 453.35 256.2 453.55 256.05 453.75 255.95 453.95 255.85 454.1 255.75 454.25 255.65 454.35 255.5 454.45 255.4 454.6 255.3 454.75 255.2 454.8 255.05 454.9 254.95 455 254.85 455.1 254.75 455.2 254.6 455.25 254.5 455.35 254.4 455.4 254.3 455.5 254.15 455.55 254.05 455.6 253.95 455.65 253.85 455.7 253.75 455.8 253.6 455.85 253.5 455.85 253.4 455.95 253.3 456 253.15 456.05 253.05 456.1 252.95 456.15 252.85 456.15 252.7 456.2 252.6 456.25 252.5 456.25 252.4 456.25 252.25 456.25 252.15 456.3 252.05 456.35 251.95 456.4 251.8 456.4 251.7 456.4 251.6 456.4 251.5 456.4 251.4 456.4 251.25 456.4 251.15 456.4 251.05 456.4 250.95 456.4 250.8 456.4 250.7 456.4 250.6 456.4 250.5 456.4 250.35 456.4 250.25 456.35 250.15 456.3 250.05 456.3 249.9 456.3 249.8 456.25 249.7 456.25 249.6 456.2 249.5 456.15 249.35 456.15 249.25 456.1 249.15 456.05 249.05 456 248.9 456 248.8 455.95 248.7 455.85 248.6 455.8 248.45 455.75 248.35 455.7 248.25 455.65 248.15 455.55 248 455.55 247.9 455.5 247.8 455.4 247.7 455.35 247.6 455.25 247.45 455.2 247.35 455.1 247.25 454.95 247.15 454.9 247 454.8 246.9 454.7 246.8 454.6 246.7 454.45 246.55 454.3 246.45 454.15 246.35 454 246.25 453.85 246.1 453.7 246 453.5 245.9 453.35 245.8 453.1 245.7 452.9 245.55 452.6 245.45 452.3 245.35 452.05 245.25 451.75 245.2 451.6 245.15 451.4 245.1 450.95 245.1 450.5 245.05 449.71796875 245.04921875 448.9 245.05 449.012109375 244.90390625 449.1 244.75 449.6 243.85 449.7 243.6 450.5 241.8 450 239.8 Z"/>
</g>

<g id="Layer0_0_FILL">
<path fill="#3F342E" stroke="none" d=" M 449.35 236.55 Q 447.8 237.75 447.3 239.8 446.75 241.8 447.6 243.6 447.7 243.85 448.2 244.75 448.3 244.9 448.35 245.05 447.6 245.05 446.75 245.05 446.3 245.1 445.8 245.1 445.6 245.15 445.45 245.2 445.15 245.25 444.9 245.35 444.55 245.45 444.25 245.55 444.05 245.7 443.8 245.8 443.65 245.9 443.45 246 443.25 246.1 443.1 246.25 442.95 246.35 442.8 246.45 442.65 246.55 442.5 246.7 442.4 246.8 442.3 246.9 442.2 247 442.15 247.15 441.95 247.25 441.85 247.35 441.8 247.45 441.7 247.6 441.65 247.7 441.55 247.8 441.5 247.9 441.5 248 441.4 248.15 441.35 248.25 441.3 248.35 441.25 248.45 441.2 248.6 441.1 248.7 441.05 248.8 441.05 248.9 441 249.05 440.95 249.15 440.9 249.25 440.9 249.35 440.85 249.5 440.8 249.6 440.8 249.7 440.7 249.8 440.7 249.9 440.7 250.05 440.65 250.15 440.6 250.25 440.6 250.35 440.6 250.5 440.6 250.6 440.6 250.7 440.6 250.8 440.6 250.95 440.6 251.05 440.6 251.15 440.6 251.25 440.6 251.4 440.6 251.5 440.6 251.6 440.6 251.7 440.6 251.8 440.65 251.95 440.7 252.05 440.8 252.15 440.8 252.25 440.8 252.4 440.8 252.5 440.85 252.6 440.9 252.7 440.9 252.85 440.95 252.95 441 253.05 441.05 253.15 441.1 253.3 441.2 253.4 441.2 253.5 441.25 253.6 441.35 253.75 441.4 253.85 441.45 253.95 441.5 254.05 441.55 254.15 441.65 254.3 441.7 254.4 441.8 254.5 441.85 254.6 441.95 254.75 442.1 254.85 442.2 254.95 442.3 255.05 442.35 255.2 442.5 255.3 442.65 255.4 442.75 255.5 442.85 255.65 443 255.75 443.15 255.85 443.4 255.95 443.6 256.05 443.8 256.2 443.95 256.3 444.25 256.4 444.5 256.5 444.75 256.6 444.9 256.65 445 256.7 445.15 256.75 445.3 256.8 445.45 256.8 445.6 256.85 445.8 256.9 446.3 256.95 446.75 256.95 455.8 256.95 464.85 256.95 469.55 258.4 474.4 258.7 477.55 258.9 479.3 258.15 479.896875 257.8671875 480.4 257.45 481.41875 257.6958984375 482.9 258.05 485.35 258.6 488.55 259 L 495.9 260.15 Q 499.35 260.65 501.05 260.15 502.55 259.7 503.65 258.5 504.3107421875 257.7791015625 504.7 256.95 523.3162109375 256.95 541.95 256.95 542.4 256.95 542.85 256.9 543.1 256.85 543.25 256.8 543.4 256.8 543.55 256.75 544.45 256.7 545.3 256.65 545.8 256.65 546.25 256.6 546.45 256.55 546.65 256.5 546.8 256.5 547 256.45 547.1 256.4 547.2 256.35 547.35 256.35 547.5 256.3 547.7 256.25 547.9 256.2 548.2 256.15 548.45 256.05 548.75 255.95 549.05 255.85 549.6 255.75 550.15 255.7 550.35 255.65 550.5 255.65 550.85 255.55 551.1 255.5 551.35 255.4 551.6 255.35 551.85 255.25 552.2 255.2 552.5 255.05 552.8 254.95 553 254.85 553.3 254.75 553.5 254.6 553.7 254.5 553.9 254.4 554.1 254.3 554.35 254.15 554.65 254.05 554.95 253.95 555.2 253.85 555.4 253.75 555.65 253.6 555.9 253.5 556.15 253.4 556.3 253.3 556.5 253.15 556.7 253.05 556.9 252.95 557.1 252.85 557.3 252.7 557.5 252.6 557.75 252.5 557.95 252.4 558.1 252.25 558.25 252.15 558.4 252.05 558.55 251.95 558.7 251.8 558.8 251.7 558.9 251.6 559.05 251.5 559.15 251.4 559.25 251.25 559.35 251.15 559.5 251.05 559.6 250.95 559.75 250.8 559.85 250.7 559.95 250.6 560.1 250.5 560.2 250.35 560.3 250.25 560.4 250.15 560.45 250.05 560.55 249.9 560.7 249.8 560.8 249.7 560.95 249.6 561.05 249.5 561.2 249.35 561.3 249.25 561.4 249.15 561.5 249.05 561.6 248.9 561.75 248.8 561.85 248.7 561.95 248.6 562.05 248.45 562.25 248.35 562.35 248.25 562.45 248.15 562.55 248 562.65 247.9 562.7 247.8 562.85 247.7 562.95 247.6 563 247.45 563.1 247.35 563.15 247.25 563.25 247.15 563.3 247 563.4 246.9 563.55 246.8 563.65 246.7 563.75 246.55 563.8 246.45 563.9 246.35 564.05 246.25 564.1 246.1 564.2 246 564.25 245.9 564.35 245.8 564.4 245.7 564.5 245.55 564.55 245.45 564.65 245.35 564.65 245.25 564.7 245.1 564.85 245 564.9 244.9 564.95 244.8 565 244.65 565.05 244.55 565.15 244.45 565.15 244.35 565.2 244.2 565.3 244.1 565.45 244 565.5 243.9 565.6 243.8 565.65 243.65 565.7 243.55 565.75 243.45 565.8 243.35 565.85 243.2 565.95 243.1 566.05 243 566.15 242.9 566.25 242.75 566.35 242.65 566.45 242.55 566.5 242.45 566.6 242.3 566.65 242.2 566.75 242.1 566.8 242 566.85 241.9 566.9 241.75 566.95 241.65 567.05 241.55 567.1 241.45 567.1 241.3 567.15 241.2 567.2 241.1 567.25 241 567.25 240.85 567.35 240.75 567.4 240.65 567.45 240.55 567.45 240.4 567.5 240.3 567.55 240.2 567.6 240.1 567.6 240 567.65 239.85 567.7 239.75 567.7 239.65 567.7 239.55 567.7 239.4 567.75 239.3 567.8 239.2 567.85 239.1 567.85 238.95 567.9 238.85 567.9 238.75 567.9 238.65 567.95 238.5 568 238.4 568 238.3 568.05 238.2 568.05 238.05 568.05 237.95 568.1 237.85 568.15 237.75 568.15 237.65 568.2 237.5 568.25 237.4 568.3 237.3 568.3 237.2 568.3 237.05 568.3 236.95 568.35 236.85 568.35 236.75 568.35 236.6 568.35 236.5 568.35 236.4 568.35 236.3 568.35 236.15 568.4 236.05 568.45 235.95 568.45 235.85 568.45 235.75 568.45 235.6 568.45 235.5 568.45 235.4 568.45 235.3 568.45 235.15 568.45 235.05 568.45 234.95 568.45 234.85 568.45 234.7 568.45 234.6 568.45 234.5 568.45 234.4 568.45 234.25 568.45 234.15 568.45 234.05 568.45 233.95 568.45 233.85 568.45 233.7 568.45 233.6 568.45 233.5 568.45 233.4 568.45 233.25 568.45 233.15 568.45 233.05 568.45 232.95 568.45 232.8 568.45 232.7 568.45 232.6 568.45 232.5 568.45 232.35 568.45 232.25 568.45 232.15 568.45 232.05 568.45 231.95 568.45 231.8 568.45 231.7 568.45 231.6 568.45 231.5 568.45 231.35 568.45 231.25 568.4 231.15 568.35 231.05 568.35 230.9 568.35 230.8 568.35 230.7 568.35 230.6 568.35 230.45 568.35 230.35 568.3 230.25 568.3 230.15 568.25 230.05 568.2 229.9 568.2 229.8 568.2 229.7 568.15 229.6 568.15 229.45 568.1 229.35 568.05 229.25 568 229.15 568 229 567.9 228.9 567.85 228.8 567.8 228.7 567.75 228.55 567.7 228.45 567.6 228.35 567.55 228.25 567.45 228.15 567.4 228 567.25 227.9 567.2 227.8 567.1 227.7 567.05 227.55 566.95 227.45 566.85 227.35 566.75 227.25 566.65 227.1 566.6 227 566.5 226.9 566.35 226.8 566.25 226.65 566.15 226.55 565.95 226.45 565.8 226.35 565.65 226.25 565.5 226.1 565.3 226 565.15 225.9 564.9 225.8 564.65 225.65 564.35 225.55 564.1 225.45 563.9 225.35 563.65 225.3 563.5 225.25 563.3 225.2 563.15 225.2 562.95 225.15 562.5 225.15 562 225.15 562 225.1 562 225.05 561.95 225.05 561.9 225.05 561.5 225.1 561.05 225.15 560.8 225.2 560.6 225.2 560.35 225.3 560.1 225.35 559.8 225.5 559.45 225.6 559.2 225.7 559 225.8 558.8 225.95 558.6 226.05 558.45 226.15 558.25 226.25 558.1 226.35 557.95 226.5 557.8 226.6 557.65 226.7 557.55 226.8 557.45 226.95 557.4 227.05 557.3 227.15 557.2 227.25 557.1 227.4 556.95 227.5 556.9 227.6 556.8 227.7 556.75 227.85 556.7 227.95 556.65 228.05 556.6 228.15 556.5 228.25 556.45 228.4 556.45 228.5 556.35 228.6 556.3 228.7 556.25 228.85 556.2 228.95 556.15 229.05 556.15 229.15 556.1 229.3 556.05 229.4 556 229.5 556 229.6 555.95 229.75 555.9 229.85 555.9 229.95 555.9 230.05 555.85 230.2 555.85 230.3 555.85 230.4 555.85 230.5 555.85 230.6 555.85 230.75 555.85 230.85 555.85 230.95 555.85 231.05 555.85 231.2 555.85 231.3 555.85 231.4 555.85 231.5 555.85 231.65 555.85 231.75 555.85 231.85 555.85 231.95 555.9 232.1 555.95 232.2 556 232.3 556 232.4 556 232.5 556 232.65 556.05 232.75 556.05 232.85 556.05 232.95 556.05 233.1 556.05 233.2 556.05 233.3 556.05 233.4 556.05 233.55 556.05 233.65 556.05 233.75 556.05 233.85 556.05 234 556.05 234.1 556.05 234.2 556.05 234.3 556.05 234.4 556.05 234.55 556 234.65 556 234.75 556 234.85 556 235 555.95 235.1 555.9 235.2 555.85 235.3 555.85 235.45 555.85 235.55 555.85 235.65 555.75 235.75 555.7 235.9 555.65 236 555.65 236.1 555.55 236.2 555.5 236.3 555.45 236.45 555.4 236.55 555.35 236.65 555.25 236.75 555.25 236.9 555.2 237 555.1 237.1 555.05 237.2 555 237.35 554.95 237.45 554.85 237.55 554.75 237.65 554.65 237.8 554.6 237.9 554.45 238 554.3 238.1 554.25 238.2 554.15 238.35 554.1 238.45 554 238.55 553.95 238.65 553.85 238.8 553.8 238.9 553.7 239 553.65 239.1 553.55 239.25 553.5 239.35 553.4 239.45 553.4 239.55 553.35 239.7 553.2 239.8 553.1 239.9 553 240 552.95 240.1 552.85 240.25 552.8 240.35 552.7 240.45 552.65 240.55 552.5 240.7 552.35 240.8 552.25 240.9 552.2 241 552.05 241.15 551.9 241.25 551.8 241.35 551.7 241.45 551.55 241.6 551.45 241.7 551.3 241.8 551.15 241.9 551.05 242 550.95 242.15 550.85 242.25 550.65 242.35 550.45 242.45 550.2 242.6 550.05 242.7 549.9 242.8 549.65 242.9 549.35 243.05 549.1 243.15 548.85 243.25 548.6 243.35 548.4 243.5 548.15 243.6 547.9 243.7 547.65 243.8 547.45 243.85 547 243.9 546.5 243.95 546.3 243.95 546.1 244 545.85 244.05 545.6 244.15 545.25 244.25 544.95 244.35 544.75 244.45 544.6 244.5 544.4 244.55 544.15 244.6 544 244.65 543.85 244.65 543.15 244.7 542.4 244.75 541.95 244.8 541.45 244.8 541.25 244.85 541.1 244.9 540.95 244.95 540.8 244.95 510.096875 244.99296875 479.4 245 478.1970703125 244.82421875 476.9 244.6 471.55 243.7 469.2 241.95 468.8 241.65 467.5 240.45 466.5 239.55 465.75 239.1 463.4 237.75 460.85 238.7 460.32109375 238.9009765625 459.85 239.15 459.6298828125 238.940625 459.4 238.7 457.4 236.6 456.9 236.3 455.25 235.2 453.1 235.25 450.9 235.3 449.35 236.55 Z"/>
</g>

<path id="Layer5_0_1_STROKES" stroke="#FFCC00" stroke-width="10" stroke-linejoin="round" stroke-linecap="round" fill="none" d=" M 732.15 388.25 L 723.55 363.35 692.25 329.05 651.7 304.1 638.45 288.75 575.2 264.35 575.2 202.45 552.5 202.45 549.8 242.2 473.25 242.2 456 202.45 446.15 202.45 428.6 242.2 351.25 242.2 348.45 202.45 325.55 202.45 325.55 264.35 261.6 288.75 248.2 304.1 207.2 329.05 175.5 363.35 166.8 388.25 166.8 426.65 M 732.15 388.25 L 762.15 423.95 805.5 502.75 823.45 530.3 823.45 567.35 808.1 593.6 797.5 629.3 730.9 689.85 709.6 725.55 649.6 757.15 620.35 757.15 597.8 741.65 585.05 721.55 577.75 689.85 577.75 671.65 597.05 658.15 637.7 648.75 667 660.85 696.25 642.65 712.2 592.25 712.2 564.6 726.95 539.7 679 512.75 635.2 461.2 608.35 483.2 595.7 491.25 587.15 530.4 608.35 613.85 575.85 636.75 507.9 659.6 451.05 667.35 453.45 667.65 M 699.55 458.95 L 677 458.95 647.75 438.8 M 747.55 459.05 L 771.45 498.05 771.45 533.1 M 732.15 388.25 L 732.15 426.65 M 575.2 155 L 578 155 578 202.45 578 261.8 M 440.6 217.35 L 461.6 217.35 M 301.35 348.55 L 351.25 322.95 401.65 322.95 M 473.25 330.4 L 464.55 345.9 M 428.6 330.4 L 437.35 345.9 M 348.45 202.45 L 446.15 202.45 M 575.2 202.45 L 578 202.45 M 599.15 348.55 L 549.8 322.95 499.95 322.95 M 325.55 202.45 L 325.55 155 575.2 155 575.2 202.45 M 456 202.45 L 552.5 202.45 M 269.05 456.25 L 264.85 461.2 291.95 483.2 304.75 491.25 313.45 530.4 291.95 613.85 324.9 636.75 393.6 659.6 451.05 667.35 448.65 667.65 M 300.75 423.3 L 322.95 454.3 370.05 468.45 389.55 468.45 M 199.75 458.95 L 222.6 458.95 252.2 438.8 M 166.8 388.25 L 136.45 423.95 92.7 502.75 74.5 530.3 74.5 567.35 90 593.6 100.75 629.3 168.05 689.85 189.65 725.55 250.25 757.15 279.9 757.15 302.7 741.65 315.5 721.55 322.95 689.85 322.95 671.65 303.45 658.15 262.35 648.75 232.7 660.85 203.05 642.65 186.95 592.25 186.95 564.6 172.1 539.7 220.6 512.75 264.85 461.2 M 151.25 459.05 L 127.05 498.05 127.05 533.1 M 635.2 461.2 L 631.1 456.25 M 599.75 423.3 L 577.75 454.3 531.2 468.45 511.95 468.45 M 533.15 541.75 L 533.15 571.4 503.25 581.5 M 531.8 494.65 L 531.8 522.95 498.5 531 M 436 376.15 L 436 445.5 416.5 467.1 M 465.9 376.15 L 465.9 445.5 485.25 467.1 M 369.4 494.65 L 369.4 522.95 403.05 531 M 368.05 541.75 L 368.05 571.4 398.3 581.5 M 482.55 541.15 L 467.25 541.15 M 461.95 531 L 451.95 522.25 451.95 506.15 M 440.05 531 L 450.15 522.25 450.15 506.15 M 419.2 541.15 L 434.65 541.15 M 430.75 543.8 L 413.35 543.8 M 449.25 546.5 L 449.25 560.65 M 452.85 546.5 L 452.85 560.65 M 452.85 593.6 L 452.85 574.1 449.25 574.1 449.25 593.6 M 463.3 574.1 L 452.85 574.1 M 449.25 574.1 L 438.7 574.1 M 446.15 489.3 L 399.65 489.3 M 409.05 597.6 L 432 597.6 M 367.35 594.95 L 367.35 613.85 391.6 627.95 411.15 627.95 M 533.85 594.95 L 533.85 613.85 509.85 627.95 490.55 627.95 M 492.6 597.6 L 469.95 597.6 M 456 489.3 L 501.9 489.3 M 471.65 543.8 L 489.2 543.8"/>

<path id="Layer3_0_1_STROKES" stroke="#FFCC00" stroke-width="10" stroke-linejoin="round" stroke-linecap="round" fill="none" d=" M 732.15 426.65 L 732.15 388.25 723.55 363.35 692.25 329.05 651.7 304.1 638.45 288.75 575.2 264.35 575.2 202.45 552.5 202.45 549.8 242.2 473.25 242.2 456 202.45 446.15 202.45 428.6 242.2 351.25 242.2 348.45 202.45 325.55 202.45 325.55 264.35 261.6 288.75 248.2 304.1 207.2 329.05 175.5 363.35 166.8 388.25 166.8 426.65 M 732.15 388.25 L 762.15 423.95 805.5 502.75 823.45 530.3 823.45 567.35 808.1 593.6 797.5 629.3 730.9 689.85 709.6 725.55 649.6 757.15 620.35 757.15 597.8 741.65 585.05 721.55 577.75 689.85 577.75 671.65 597.05 658.15 637.7 648.75 667 660.85 696.25 642.65 712.2 592.25 712.2 564.6 726.95 539.7 679 512.75 635.2 461.2 608.35 483.2 595.7 491.25 587.15 530.4 608.35 613.85 575.85 636.75 507.9 659.6 451.05 667.35 453.45 667.65 M 699.55 458.95 L 677 458.95 647.75 438.8 M 747.55 459.05 L 771.45 498.05 771.45 533.1 M 325.55 202.45 L 325.55 155 575.2 155 578 155 578 202.45 578 261.8 M 440.6 217.35 L 461.6 217.35 M 301.35 348.55 L 351.25 322.95 401.65 322.95 M 473.25 330.4 L 464.55 345.9 M 428.6 330.4 L 437.35 345.9 M 348.45 202.45 L 446.15 202.45 M 575.2 155 L 575.2 202.45 578 202.45 M 599.15 348.55 L 549.8 322.95 499.95 322.95 M 456 202.45 L 552.5 202.45 M 166.8 388.25 L 136.45 423.95 92.7 502.75 74.5 530.3 74.5 567.35 90 593.6 100.75 629.3 168.05 689.85 189.65 725.55 250.25 757.15 279.9 757.15 302.7 741.65 315.5 721.55 322.95 689.85 322.95 671.65 303.45 658.15 262.35 648.75 232.7 660.85 203.05 642.65 186.95 592.25 186.95 564.6 172.1 539.7 220.6 512.75 264.85 461.2 269.05 456.25 M 264.85 461.2 L 291.95 483.2 304.75 491.25 313.45 530.4 291.95 613.85 324.9 636.75 393.6 659.6 451.05 667.35 448.65 667.65 M 300.75 423.3 L 322.95 454.3 370.05 468.45 389.55 468.45 M 199.75 458.95 L 222.6 458.95 252.2 438.8 M 151.25 459.05 L 127.05 498.05 127.05 533.1 M 635.2 461.2 L 631.1 456.25 M 599.75 423.3 L 577.75 454.3 531.2 468.45 511.95 468.45 M 533.15 541.75 L 533.15 571.4 503.25 581.5 M 531.8 494.65 L 531.8 522.95 498.5 531 M 436 376.15 L 436 445.5 416.5 467.1 M 465.9 376.15 L 465.9 445.5 485.25 467.1 M 369.4 494.65 L 369.4 522.95 403.05 531 M 368.05 541.75 L 368.05 571.4 398.3 581.5 M 461.95 531 L 451.95 522.25 451.95 506.15 M 440.05 531 L 450.15 522.25 450.15 506.15 M 482.55 541.15 L 467.25 541.15 M 419.2 541.15 L 434.65 541.15 M 430.75 543.8 L 413.35 543.8 M 449.25 546.5 L 449.25 560.65 M 452.85 546.5 L 452.85 560.65 M 452.85 593.6 L 452.85 574.1 449.25 574.1 449.25 593.6 M 463.3 574.1 L 452.85 574.1 M 449.25 574.1 L 438.7 574.1 M 446.15 489.3 L 399.65 489.3 M 409.05 597.6 L 432 597.6 M 367.35 594.95 L 367.35 613.85 391.6 627.95 411.15 627.95 M 533.85 594.95 L 533.85 613.85 509.85 627.95 490.55 627.95 M 456 489.3 L 501.9 489.3 M 492.6 597.6 L 469.95 597.6 M 471.65 543.8 L 489.2 543.8"/>
</defs>

<g transform="matrix( 1, 0, 0, 1, 0,0) ">
<use xlink:href="#Layer5_0_FILL"/>

<use xlink:href="#Layer5_0_1_STROKES"/>

<use xlink:href="#Layer5_0_STROKES_1_FILL"/>
</g>

<g transform="matrix( 1, 0, 0, 1, 0,0) ">
<use xlink:href="#Layer4_0_FILL"/>
</g>

<g transform="matrix( 1, 0, 0, 1, 0,0) ">
<use xlink:href="#Layer3_0_1_STROKES"/>

<use xlink:href="#Layer3_0_STROKES_1_FILL"/>
</g>

<g transform="matrix( 1, 0, 0, 1, 0,0) ">
<use xlink:href="#Layer1_0_FILL"/>
</g>

<g transform="matrix( 1, 0, 0, 1, 0,0) ">
<use xlink:href="#Layer0_0_FILL"/>
</g>
</svg>